STARTFONT 2.1
FONT -FontForge-Shadows Into Light-Book-R-Normal--24-240-72-72-P-99-ISO10646-1
SIZE 24 72 72
FONTBOUNDINGBOX 34 38 -4 -10
COMMENT "Generated by fontforge, http://fontforge.sourceforge.net"
COMMENT "Copyright (c) 2010, Kimberly Geswein (kimberlygeswein.com)"
STARTPROPERTIES 39
FOUNDRY "FontForge"
FAMILY_NAME "Shadows Into Light"
WEIGHT_NAME "Book"
SLANT "R"
SETWIDTH_NAME "Normal"
ADD_STYLE_NAME ""
PIXEL_SIZE 24
POINT_SIZE 240
RESOLUTION_X 72
RESOLUTION_Y 72
SPACING "P"
AVERAGE_WIDTH 99
CHARSET_REGISTRY "ISO10646"
CHARSET_ENCODING "1"
FONTNAME_REGISTRY ""
CHARSET_COLLECTIONS "ISO8859-2 ISO8859-9 ISO8859-4 ISO10646-1"
FONT_NAME "ShadowsIntoLight"
FACE_NAME "Shadows Into Light"
COPYRIGHT "Copyright (c) 2010, Kimberly Geswein (kimberlygeswein.com)"
FONT_VERSION "001.000"
FONT_ASCENT 19
FONT_DESCENT 5
UNDERLINE_POSITION 0
UNDERLINE_THICKNESS 0
X_HEIGHT 14
CAP_HEIGHT 16
RAW_ASCENT 799
RAW_DESCENT 200
NORM_SPACE 11
RELATIVE_WEIGHT 40
RELATIVE_SETWIDTH 50
SUPERSCRIPT_X 0
SUPERSCRIPT_Y 11
SUPERSCRIPT_SIZE 15
SUBSCRIPT_X 0
SUBSCRIPT_Y 3
SUBSCRIPT_SIZE 15
AVG_LOWERCASE_WIDTH 90
AVG_UPPERCASE_WIDTH 115
ENDPROPERTIES
CHARS 352
STARTCHAR space
ENCODING 32
SWIDTH 450 0
DWIDTH 11 0
BBX 1 1 0 0
BITMAP
00
ENDCHAR
STARTCHAR exclam
ENCODING 33
SWIDTH 137 0
DWIDTH 3 0
BBX 3 20 0 0
BITMAP
40
40
40
40
C0
C0
C0
C0
C0
C0
C0
40
00
00
00
00
00
00
20
20
ENDCHAR
STARTCHAR quotedbl
ENCODING 34
SWIDTH 212 0
DWIDTH 5 0
BBX 3 7 1 12
BITMAP
A0
A0
A0
A0
A0
A0
80
ENDCHAR
STARTCHAR numbersign
ENCODING 35
SWIDTH 450 0
DWIDTH 11 0
BBX 10 13 1 2
BITMAP
0400
2400
2400
2700
3E00
E600
26C0
2700
2E00
3200
E200
2200
1000
ENDCHAR
STARTCHAR dollar
ENCODING 36
SWIDTH 445 0
DWIDTH 11 0
BBX 10 22 0 -3
BITMAP
0400
0400
0C00
0C00
0F00
1C00
2400
4400
C400
C400
FF80
0440
0440
0480
0500
0600
1E00
0600
0200
0200
0200
0200
ENDCHAR
STARTCHAR percent
ENCODING 37
SWIDTH 450 0
DWIDTH 11 0
BBX 10 19 0 0
BITMAP
0100
0100
2300
5200
D200
D600
F400
6400
0400
0C00
08C0
08C0
08C0
08C0
0880
1000
1000
1000
1000
ENDCHAR
STARTCHAR ampersand
ENCODING 38
SWIDTH 356 0
DWIDTH 9 0
BBX 8 10 0 3
BITMAP
08
08
08
09
7E
9C
9C
BC
6C
0C
ENDCHAR
STARTCHAR quotesingle
ENCODING 39
SWIDTH 155 0
DWIDTH 4 0
BBX 1 7 1 8
BITMAP
80
80
80
80
80
80
80
ENDCHAR
STARTCHAR parenleft
ENCODING 40
SWIDTH 291 0
DWIDTH 7 0
BBX 6 20 0 0
BITMAP
04
04
08
18
10
20
20
60
40
40
40
C0
C0
C0
40
40
40
20
30
1C
ENDCHAR
STARTCHAR parenright
ENCODING 41
SWIDTH 241 0
DWIDTH 6 0
BBX 4 18 1 0
BITMAP
80
C0
40
20
20
10
10
10
10
10
10
10
10
30
20
20
40
40
ENDCHAR
STARTCHAR asterisk
ENCODING 42
SWIDTH 481 0
DWIDTH 12 0
BBX 11 12 0 1
BITMAP
0800
0980
0900
6A00
3FE0
0E00
FF00
1DC0
3440
6400
4400
0400
ENDCHAR
STARTCHAR plus
ENCODING 43
SWIDTH 466 0
DWIDTH 11 0
BBX 11 10 0 3
BITMAP
0800
0800
0800
0800
09E0
0E00
FC00
0C00
0C00
0C00
ENDCHAR
STARTCHAR comma
ENCODING 44
SWIDTH 112 0
DWIDTH 3 0
BBX 1 6 1 -3
BITMAP
80
80
80
80
80
80
ENDCHAR
STARTCHAR hyphen
ENCODING 45
SWIDTH 399 0
DWIDTH 10 0
BBX 9 4 0 4
BITMAP
0180
0F80
7800
C000
ENDCHAR
STARTCHAR period
ENCODING 46
SWIDTH 128 0
DWIDTH 3 0
BBX 1 2 1 0
BITMAP
80
80
ENDCHAR
STARTCHAR slash
ENCODING 47
SWIDTH 306 0
DWIDTH 7 0
BBX 7 19 0 -2
BITMAP
06
04
04
04
08
08
08
18
10
10
30
20
20
20
40
40
40
80
80
ENDCHAR
STARTCHAR zero
ENCODING 48
SWIDTH 308 0
DWIDTH 7 0
BBX 6 13 1 0
BITMAP
30
48
88
88
84
84
84
84
84
88
88
58
30
ENDCHAR
STARTCHAR one
ENCODING 49
SWIDTH 112 0
DWIDTH 3 0
BBX 1 15 1 0
BITMAP
80
80
80
80
80
80
80
80
80
80
80
80
80
80
80
ENDCHAR
STARTCHAR two
ENCODING 50
SWIDTH 512 0
DWIDTH 12 0
BBX 12 14 0 0
BITMAP
0C00
1E00
2200
C200
4200
0200
0200
0600
0400
0400
0830
19E0
1E00
1000
ENDCHAR
STARTCHAR three
ENCODING 51
SWIDTH 461 0
DWIDTH 11 0
BBX 11 17 0 0
BITMAP
0200
1F00
6300
C200
0600
0400
0800
1FC0
3840
0060
0060
0040
00C0
0180
0300
0E00
0800
ENDCHAR
STARTCHAR four
ENCODING 52
SWIDTH 503 0
DWIDTH 12 0
BBX 12 19 0 0
BITMAP
0100
0180
0380
0380
0780
0580
0D80
0980
1180
31B0
23E0
FD80
8180
0180
0180
0180
0180
0180
0100
ENDCHAR
STARTCHAR five
ENCODING 53
SWIDTH 478 0
DWIDTH 11 0
BBX 11 17 0 0
BITMAP
0020
63E0
FC00
6000
6000
4000
4200
4F00
5980
6180
4100
0100
0300
0600
0400
0C00
0800
ENDCHAR
STARTCHAR six
ENCODING 54
SWIDTH 375 0
DWIDTH 9 0
BBX 7 20 1 0
BITMAP
20
20
60
40
40
40
40
C0
80
80
80
8E
9A
92
A2
A4
C4
C8
D8
70
ENDCHAR
STARTCHAR seven
ENCODING 55
SWIDTH 458 0
DWIDTH 11 0
BBX 10 18 0 0
BITMAP
00C0
3FC0
F0C0
0080
0180
0100
0100
0100
0100
0200
0200
0200
0200
0200
0200
0200
0300
0300
ENDCHAR
STARTCHAR eight
ENCODING 56
SWIDTH 333 0
DWIDTH 8 0
BBX 7 17 0 0
BITMAP
0C
1E
2E
42
42
C2
44
44
2C
38
18
14
14
22
22
22
3C
ENDCHAR
STARTCHAR nine
ENCODING 57
SWIDTH 475 0
DWIDTH 11 0
BBX 11 16 0 0
BITMAP
0780
18C0
31C0
2340
4240
4640
CC40
F840
6040
0040
0040
0040
0040
0060
0060
0040
ENDCHAR
STARTCHAR colon
ENCODING 58
SWIDTH 120 0
DWIDTH 3 0
BBX 1 7 1 3
BITMAP
80
00
00
00
00
00
80
ENDCHAR
STARTCHAR semicolon
ENCODING 59
SWIDTH 121 0
DWIDTH 3 0
BBX 1 10 1 -3
BITMAP
80
00
00
00
80
80
80
80
80
80
ENDCHAR
STARTCHAR less
ENCODING 60
SWIDTH 409 0
DWIDTH 10 0
BBX 9 12 1 3
BITMAP
0180
0300
0600
0C00
3800
6000
C000
6000
3000
1C00
0700
0300
ENDCHAR
STARTCHAR equal
ENCODING 61
SWIDTH 433 0
DWIDTH 10 0
BBX 9 6 1 2
BITMAP
7F00
E000
0000
0780
7800
C000
ENDCHAR
STARTCHAR greater
ENCODING 62
SWIDTH 450 0
DWIDTH 11 0
BBX 8 13 1 3
BITMAP
80
E0
38
0E
03
01
01
02
0C
18
30
60
C0
ENDCHAR
STARTCHAR question
ENCODING 63
SWIDTH 445 0
DWIDTH 11 0
BBX 10 22 0 0
BITMAP
0F80
78C0
E040
0040
00C0
0080
0100
0200
0E00
0C00
1800
1800
1F00
0600
0000
0000
0000
0000
0000
0000
0800
0C00
ENDCHAR
STARTCHAR at
ENCODING 64
SWIDTH 945 0
DWIDTH 23 0
BBX 21 22 1 0
BITMAP
000C00
007F00
018080
020040
040040
082020
107020
318820
233020
423020
445020
CC9040
8998C0
8B0F80
8E0000
800000
800018
C00038
C00060
600180
381E00
0FF000
ENDCHAR
STARTCHAR A
ENCODING 65
SWIDTH 390 0
DWIDTH 9 0
BBX 11 18 1 0
BITMAP
6000
6000
7000
5000
5000
4800
4800
4800
CC00
C4C0
C720
CE00
F600
C200
8200
8300
8100
0100
ENDCHAR
STARTCHAR B
ENCODING 66
SWIDTH 537 0
DWIDTH 13 0
BBX 11 17 1 0
BITMAP
1F00
B100
C100
C200
8400
8DE0
DE20
7820
7020
6040
4080
4100
4300
2600
2C00
2800
2000
ENDCHAR
STARTCHAR C
ENCODING 67
SWIDTH 487 0
DWIDTH 12 0
BBX 10 17 1 0
BITMAP
1E00
1100
2000
2000
4000
4000
4000
C000
8000
8000
8040
80C0
8080
8100
8300
CC00
7800
ENDCHAR
STARTCHAR D
ENCODING 68
SWIDTH 554 0
DWIDTH 13 0
BBX 12 18 1 0
BITMAP
4000
7800
7FC0
E060
6030
6010
2010
2020
2020
2040
20C0
2080
2100
2300
2600
2C00
1800
1000
ENDCHAR
STARTCHAR E
ENCODING 69
SWIDTH 474 0
DWIDTH 11 0
BBX 10 17 1 0
BITMAP
8780
DC00
F000
C000
C000
4000
4300
4C00
5800
6000
4000
40C0
4180
4600
4C00
7000
4000
ENDCHAR
STARTCHAR F
ENCODING 70
SWIDTH 428 0
DWIDTH 10 0
BBX 9 17 1 0
BITMAP
0080
8700
9C00
F000
C000
8000
8000
8080
8300
8600
9800
E000
C000
8000
8000
8000
4000
ENDCHAR
STARTCHAR G
ENCODING 71
SWIDTH 591 0
DWIDTH 14 0
BBX 14 19 0 -3
BITMAP
00C0
0380
0600
0C00
0800
1000
300C
20F8
2110
4030
4030
4070
C0D0
4190
7F10
1810
0010
0010
0010
ENDCHAR
STARTCHAR H
ENCODING 72
SWIDTH 424 0
DWIDTH 10 0
BBX 8 16 1 0
BITMAP
82
82
82
82
82
83
83
87
8D
F1
C1
81
81
81
81
81
ENDCHAR
STARTCHAR I
ENCODING 73
SWIDTH 153 0
DWIDTH 4 0
BBX 2 18 1 0
BITMAP
80
C0
40
40
40
40
40
40
40
40
40
40
40
40
40
40
40
40
ENDCHAR
STARTCHAR J
ENCODING 74
SWIDTH 371 0
DWIDTH 9 0
BBX 8 19 0 -2
BITMAP
02
02
02
02
02
02
03
03
03
01
01
01
01
81
81
41
41
36
08
ENDCHAR
STARTCHAR K
ENCODING 75
SWIDTH 524 0
DWIDTH 13 0
BBX 12 16 1 0
BITMAP
8000
8100
8300
8600
C400
CC00
5800
5000
7000
6000
6000
7010
7FE0
4000
6000
2000
ENDCHAR
STARTCHAR L
ENCODING 76
SWIDTH 537 0
DWIDTH 13 0
BBX 12 15 1 0
BITMAP
8000
8000
8000
8000
8000
C000
C000
C000
C000
C000
C070
C180
C600
F800
E000
ENDCHAR
STARTCHAR M
ENCODING 77
SWIDTH 682 0
DWIDTH 16 0
BBX 15 18 1 0
BITMAP
C018
E018
A018
9028
9028
9828
8848
CC48
4448
4688
4288
438C
4104
4004
4004
4004
4004
4006
ENDCHAR
STARTCHAR N
ENCODING 78
SWIDTH 541 0
DWIDTH 13 0
BBX 11 18 1 0
BITMAP
00C0
0040
8040
8040
C040
E040
B040
9840
C840
CC40
4640
4340
4140
40C0
40E0
4060
4060
4000
ENDCHAR
STARTCHAR O
ENCODING 79
SWIDTH 382 0
DWIDTH 9 0
BBX 9 16 0 0
BITMAP
0E00
1B00
3100
2180
6180
6080
4180
4180
4180
C100
C100
C300
C300
4600
7C00
3800
ENDCHAR
STARTCHAR P
ENCODING 80
SWIDTH 508 0
DWIDTH 12 0
BBX 11 19 1 0
BITMAP
4F80
70C0
C060
C060
4040
40C0
4180
4600
5C00
7000
4000
4000
4000
4000
4000
4000
4000
4000
4000
ENDCHAR
STARTCHAR Q
ENCODING 81
SWIDTH 512 0
DWIDTH 12 0
BBX 11 18 1 0
BITMAP
3F00
3180
6080
4040
C040
C040
8040
8040
8040
8640
8240
8340
81C0
8180
C180
41C0
6240
3C60
ENDCHAR
STARTCHAR R
ENCODING 82
SWIDTH 503 0
DWIDTH 12 0
BBX 11 19 1 0
BITMAP
8000
9FC0
F060
C040
8080
8300
8600
9800
E000
C000
E000
F000
9C00
8700
81E0
8060
8000
8000
8000
ENDCHAR
STARTCHAR S
ENCODING 83
SWIDTH 541 0
DWIDTH 13 0
BBX 12 17 0 0
BITMAP
07C0
0C00
1000
2000
6000
4000
C000
C000
4000
3000
0FE0
0010
0010
0060
03C0
1E00
1000
ENDCHAR
STARTCHAR T
ENCODING 84
SWIDTH 595 0
DWIDTH 14 0
BBX 17 17 0 0
BITMAP
018F80
0FFC00
F88000
008000
008000
008000
008000
008000
008000
00C000
00C000
00C000
004000
004000
004000
004000
004000
ENDCHAR
STARTCHAR U
ENCODING 85
SWIDTH 450 0
DWIDTH 11 0
BBX 9 18 1 -3
BITMAP
0080
8180
8180
8180
8180
8180
8180
8380
8380
8280
8280
8680
C480
7880
3080
0080
0080
0080
ENDCHAR
STARTCHAR V
ENCODING 86
SWIDTH 524 0
DWIDTH 13 0
BBX 12 17 0 0
BITMAP
0010
0030
0030
C020
4020
6060
2060
3040
1040
18C0
08C0
0CC0
0C80
0680
0780
0380
0100
ENDCHAR
STARTCHAR W
ENCODING 87
SWIDTH 878 0
DWIDTH 21 0
BBX 20 18 0 0
BITMAP
000010
000010
000010
403030
C03020
603820
207820
204860
304840
304C40
108440
1884C0
188280
190280
090180
0D0180
0F0100
060000
ENDCHAR
STARTCHAR X
ENCODING 88
SWIDTH 461 0
DWIDTH 11 0
BBX 9 17 1 0
BITMAP
0080
4080
C180
4100
6200
2200
3400
1C00
1800
1800
1C00
3400
2600
4200
C300
8100
0180
ENDCHAR
STARTCHAR Y
ENCODING 89
SWIDTH 483 0
DWIDTH 12 0
BBX 11 19 0 0
BITMAP
0020
0020
0020
0040
C040
4040
60C0
3080
1880
0D80
0700
0300
0300
0200
0200
0600
0400
0400
0C00
ENDCHAR
STARTCHAR Z
ENCODING 90
SWIDTH 670 0
DWIDTH 16 0
BBX 15 16 1 0
BITMAP
FFF0
0030
0060
00C0
0180
0180
0300
0600
0C00
0800
1800
3000
6000
C000
FFFE
FFF8
ENDCHAR
STARTCHAR bracketleft
ENCODING 91
SWIDTH 470 0
DWIDTH 11 0
BBX 10 29 1 -2
BITMAP
9F80
F000
8000
8000
8000
8000
8000
8000
8000
8000
8000
C000
4000
4000
4000
4000
4000
4000
4000
4000
4000
4000
4000
4000
4000
6000
6040
67C0
7C00
ENDCHAR
STARTCHAR backslash
ENCODING 92
SWIDTH 554 0
DWIDTH 13 0
BBX 13 24 0 0
BITMAP
C000
4000
2000
2000
1000
1000
0800
0800
0400
0400
0600
0200
0300
0100
0180
0080
00C0
0040
0060
0020
0030
0030
0018
0018
ENDCHAR
STARTCHAR bracketright
ENCODING 93
SWIDTH 512 0
DWIDTH 12 0
BBX 12 30 0 -2
BITMAP
7FE0
E060
0060
0060
0040
0040
0040
0040
0040
0040
0060
0060
0060
0060
0060
0060
0020
0020
0020
0020
0020
0020
0020
0020
0020
0020
0020
0030
0070
07E0
ENDCHAR
STARTCHAR asciicircum
ENCODING 94
SWIDTH 390 0
DWIDTH 9 0
BBX 8 6 1 16
BITMAP
30
28
64
46
83
81
ENDCHAR
STARTCHAR underscore
ENCODING 95
SWIDTH 612 0
DWIDTH 15 0
BBX 14 4 0 0
BITMAP
003C
03F8
3F00
F000
ENDCHAR
STARTCHAR grave
ENCODING 96
SWIDTH 155 0
DWIDTH 4 0
BBX 3 4 0 14
BITMAP
80
C0
60
20
ENDCHAR
STARTCHAR a
ENCODING 97
SWIDTH 366 0
DWIDTH 9 0
BBX 8 13 0 0
BITMAP
06
0E
1A
32
22
67
47
4D
C9
99
B1
E1
41
ENDCHAR
STARTCHAR b
ENCODING 98
SWIDTH 442 0
DWIDTH 11 0
BBX 9 20 1 0
BITMAP
C000
C000
C000
C000
C000
8000
8000
8000
8F00
9980
A180
E080
C180
8180
8300
8300
8E00
9800
F000
C000
ENDCHAR
STARTCHAR c
ENCODING 99
SWIDTH 390 0
DWIDTH 9 0
BBX 8 14 1 0
BITMAP
38
68
C8
C8
80
80
80
80
81
83
82
86
CC
78
ENDCHAR
STARTCHAR d
ENCODING 100
SWIDTH 316 0
DWIDTH 8 0
BBX 7 23 0 -2
BITMAP
06
06
06
06
06
02
02
02
02
3E
66
66
46
C6
C6
86
86
8A
8A
F2
62
02
02
ENDCHAR
STARTCHAR e
ENCODING 101
SWIDTH 461 0
DWIDTH 11 0
BBX 11 13 0 0
BITMAP
0E00
1F00
1180
3300
2600
7800
6000
E060
40C0
4180
4100
2600
3C00
ENDCHAR
STARTCHAR f
ENCODING 102
SWIDTH 345 0
DWIDTH 8 0
BBX 8 21 0 0
BITMAP
1C
1E
12
30
30
30
30
30
30
37
3E
70
F0
30
30
10
10
10
10
10
10
ENDCHAR
STARTCHAR g
ENCODING 103
SWIDTH 437 0
DWIDTH 11 0
BBX 10 23 0 -10
BITMAP
0780
0D80
1180
3280
2280
6680
4480
4C80
C880
D8C0
70C0
60C0
00C0
00C0
00C0
0080
0080
0080
0180
0100
0300
0600
3C00
ENDCHAR
STARTCHAR h
ENCODING 104
SWIDTH 466 0
DWIDTH 11 0
BBX 10 18 1 0
BITMAP
8000
8000
8000
8000
8000
8000
8300
8F80
9C80
9880
B080
B080
A0C0
E0C0
C0C0
C0C0
80C0
80C0
ENDCHAR
STARTCHAR i
ENCODING 105
SWIDTH 132 0
DWIDTH 3 0
BBX 2 18 0 0
BITMAP
C0
40
00
00
40
40
40
40
40
40
40
40
40
40
40
40
40
40
ENDCHAR
STARTCHAR j
ENCODING 106
SWIDTH 112 0
DWIDTH 3 0
BBX 7 27 -4 -8
BITMAP
04
00
00
00
00
00
00
04
04
04
04
04
04
04
04
04
04
04
04
04
06
06
04
04
84
4C
38
ENDCHAR
STARTCHAR k
ENCODING 107
SWIDTH 428 0
DWIDTH 10 0
BBX 9 19 1 -1
BITMAP
C000
C000
C000
C000
C180
C300
C300
8600
8E00
8C00
9800
B000
E000
C000
E000
BC00
8780
8100
8000
ENDCHAR
STARTCHAR l
ENCODING 108
SWIDTH 137 0
DWIDTH 3 0
BBX 2 20 1 0
BITMAP
80
80
80
80
80
80
80
80
80
80
80
80
80
80
C0
C0
C0
C0
C0
40
ENDCHAR
STARTCHAR m
ENCODING 109
SWIDTH 579 0
DWIDTH 14 0
BBX 12 14 1 0
BITMAP
8000
8000
90E0
98E0
BDA0
BD20
A520
A720
A620
E620
C220
C030
C010
4000
ENDCHAR
STARTCHAR n
ENCODING 110
SWIDTH 483 0
DWIDTH 12 0
BBX 10 14 1 0
BITMAP
8300
8F80
8C80
9880
9880
9080
D0C0
F0C0
E0C0
E0C0
E0C0
E0C0
C040
4000
ENDCHAR
STARTCHAR o
ENCODING 111
SWIDTH 266 0
DWIDTH 6 0
BBX 6 13 0 0
BITMAP
30
78
44
44
44
44
C4
C4
CC
48
48
70
60
ENDCHAR
STARTCHAR p
ENCODING 112
SWIDTH 482 0
DWIDTH 12 0
BBX 10 20 1 -7
BITMAP
8000
8780
9840
A040
C0C0
8180
8300
8600
8C00
B800
E000
C000
8000
8000
8000
8000
8000
8000
8000
8000
ENDCHAR
STARTCHAR q
ENCODING 113
SWIDTH 408 0
DWIDTH 10 0
BBX 10 18 0 -7
BITMAP
0F00
1900
3100
2100
6300
4380
4380
C680
4C80
7880
0080
0080
0080
00C0
00C0
0040
0040
0040
ENDCHAR
STARTCHAR r
ENCODING 114
SWIDTH 396 0
DWIDTH 10 0
BBX 8 12 1 0
BITMAP
8F
98
B0
B0
A0
A0
60
60
60
60
60
60
ENDCHAR
STARTCHAR s
ENCODING 115
SWIDTH 366 0
DWIDTH 9 0
BBX 8 13 1 -1
BITMAP
1C
60
C0
80
80
84
FE
E3
02
04
18
70
20
ENDCHAR
STARTCHAR t
ENCODING 116
SWIDTH 268 0
DWIDTH 6 0
BBX 8 19 -1 -1
BITMAP
10
10
10
30
30
3F
3C
F0
B0
30
30
30
10
10
10
10
10
10
10
ENDCHAR
STARTCHAR u
ENCODING 117
SWIDTH 387 0
DWIDTH 9 0
BBX 8 12 1 0
BITMAP
80
86
86
86
86
86
86
86
8E
CA
5A
73
ENDCHAR
STARTCHAR v
ENCODING 118
SWIDTH 354 0
DWIDTH 9 0
BBX 8 13 0 0
BITMAP
03
03
03
C3
43
63
33
33
1B
0A
0E
06
02
ENDCHAR
STARTCHAR w
ENCODING 119
SWIDTH 566 0
DWIDTH 14 0
BBX 12 12 1 0
BITMAP
8C20
8E30
CA20
4B20
4920
68B0
28F0
3870
1870
1830
1810
0800
ENDCHAR
STARTCHAR x
ENCODING 120
SWIDTH 454 0
DWIDTH 11 0
BBX 10 17 0 -2
BITMAP
0200
0200
0600
0600
C600
6400
3400
1C00
0C00
0E00
0F00
0980
18C0
1840
1000
1000
1000
ENDCHAR
STARTCHAR y
ENCODING 121
SWIDTH 363 0
DWIDTH 9 0
BBX 7 22 1 -9
BITMAP
02
02
82
82
C2
62
22
32
1A
0A
0E
06
06
02
06
06
06
06
04
04
04
04
ENDCHAR
STARTCHAR z
ENCODING 122
SWIDTH 618 0
DWIDTH 15 0
BBX 14 12 1 0
BITMAP
0380
1F00
F300
8300
0600
0600
0400
0800
0800
187C
1FF0
1E00
ENDCHAR
STARTCHAR braceleft
ENCODING 123
SWIDTH 348 0
DWIDTH 8 0
BBX 8 22 0 -2
BITMAP
1F
31
20
20
20
30
10
18
70
60
20
10
70
C0
C0
80
80
C0
40
60
38
1E
ENDCHAR
STARTCHAR bar
ENCODING 124
SWIDTH 137 0
DWIDTH 3 0
BBX 2 20 1 0
BITMAP
80
80
80
80
80
80
80
80
80
80
80
80
80
80
C0
C0
C0
C0
C0
40
ENDCHAR
STARTCHAR braceright
ENCODING 125
SWIDTH 348 0
DWIDTH 8 0
BBX 7 23 0 -3
BITMAP
70
98
0C
04
04
0C
08
18
18
06
04
08
08
0E
02
02
02
02
02
06
0C
78
20
ENDCHAR
STARTCHAR asciitilde
ENCODING 126
SWIDTH 458 0
DWIDTH 11 0
BBX 9 4 1 13
BITMAP
7980
D980
8F00
0600
ENDCHAR
STARTCHAR nonbreakingspace
ENCODING 160
SWIDTH 450 0
DWIDTH 11 0
BBX 1 1 0 0
BITMAP
00
ENDCHAR
STARTCHAR exclamdown
ENCODING 161
SWIDTH 137 0
DWIDTH 3 0
BBX 2 16 1 -4
BITMAP
40
00
00
00
00
00
80
80
80
80
80
80
80
80
80
80
ENDCHAR
STARTCHAR cent
ENCODING 162
SWIDTH 394 0
DWIDTH 9 0
BBX 8 19 1 -2
BITMAP
10
10
10
38
7C
D4
D0
90
90
90
90
91
93
92
96
DC
78
18
10
ENDCHAR
STARTCHAR sterling
ENCODING 163
SWIDTH 539 0
DWIDTH 13 0
BBX 12 16 0 0
BITMAP
01E0
0320
0610
0C00
0800
1880
7F00
F000
1000
1000
1000
1000
3000
33C0
1770
1800
ENDCHAR
STARTCHAR currency
ENCODING 164
SWIDTH 500 0
DWIDTH 12 0
BBX 9 14 1 2
BITMAP
0080
0180
2580
3F00
3200
2300
2100
2100
2300
3300
3600
7F00
C100
8100
ENDCHAR
STARTCHAR yen
ENCODING 165
SWIDTH 478 0
DWIDTH 11 0
BBX 9 19 1 0
BITMAP
4180
6180
3300
3300
1E00
1C00
1C00
0C00
0C00
0C00
3F80
7C00
0C00
FF80
4C00
0C00
0800
0800
0800
ENDCHAR
STARTCHAR brokenbar
ENCODING 166
SWIDTH 137 0
DWIDTH 3 0
BBX 2 20 1 0
BITMAP
80
80
80
80
80
80
80
80
00
80
80
80
C0
C0
C0
C0
C0
C0
C0
40
ENDCHAR
STARTCHAR section
ENCODING 167
SWIDTH 366 0
DWIDTH 9 0
BBX 9 19 0 -1
BITMAP
0E00
3200
6000
4000
4000
C000
DF00
7100
6100
4200
4600
4A00
7F00
7180
0100
0200
0C00
3800
1000
ENDCHAR
STARTCHAR dieresis
ENCODING 168
SWIDTH 306 0
DWIDTH 7 0
BBX 5 2 1 16
BITMAP
C8
48
ENDCHAR
STARTCHAR copyright
ENCODING 169
SWIDTH 485 0
DWIDTH 12 0
BBX 11 16 0 0
BITMAP
0780
0CC0
1840
3260
2F20
6920
5820
5820
5860
D8E0
C9C0
CFC0
C080
4100
7E00
3C00
ENDCHAR
STARTCHAR ordfeminine
ENCODING 170
SWIDTH 227 0
DWIDTH 5 0
BBX 5 6 0 3
BITMAP
30
50
58
A8
A8
C8
ENDCHAR
STARTCHAR guillemotleft
ENCODING 171
SWIDTH 652 0
DWIDTH 16 0
BBX 13 13 1 3
BITMAP
0008
0198
0330
0660
0CC0
3980
6600
C400
6700
3380
1CE0
0738
0310
ENDCHAR
STARTCHAR logicalnot
ENCODING 172
SWIDTH 539 0
DWIDTH 13 0
BBX 10 7 2 3
BITMAP
0080
FFC0
0040
0040
0040
0040
0040
ENDCHAR
STARTCHAR uni00AD
ENCODING 173
SWIDTH 399 0
DWIDTH 10 0
BBX 9 4 0 4
BITMAP
0180
0F80
7800
C000
ENDCHAR
STARTCHAR registered
ENCODING 174
SWIDTH 382 0
DWIDTH 9 0
BBX 11 16 0 0
BITMAP
0700
0F80
10C0
2040
3F20
78A0
5920
5620
5C20
D620
D1E0
D0C0
C0C0
4180
7700
3C00
ENDCHAR
STARTCHAR macron
ENCODING 175
SWIDTH 399 0
DWIDTH 10 0
BBX 9 2 0 16
BITMAP
0780
FE00
ENDCHAR
STARTCHAR degree
ENCODING 176
SWIDTH 201 0
DWIDTH 5 0
BBX 3 4 1 9
BITMAP
E0
A0
A0
C0
ENDCHAR
STARTCHAR plusminus
ENCODING 177
SWIDTH 466 0
DWIDTH 11 0
BBX 9 11 0 2
BITMAP
0800
0800
0800
0800
0B80
0E00
FC00
0C00
0C00
0D80
7F80
ENDCHAR
STARTCHAR twosuperior
ENCODING 178
SWIDTH 318 0
DWIDTH 8 0
BBX 7 8 0 3
BITMAP
30
50
88
10
10
10
2E
30
ENDCHAR
STARTCHAR threesuperior
ENCODING 179
SWIDTH 280 0
DWIDTH 7 0
BBX 6 9 0 4
BITMAP
78
90
10
3C
44
04
04
18
20
ENDCHAR
STARTCHAR acute
ENCODING 180
SWIDTH 155 0
DWIDTH 4 0
BBX 3 3 0 14
BITMAP
20
60
C0
ENDCHAR
STARTCHAR mu
ENCODING 181
SWIDTH 387 0
DWIDTH 9 0
BBX 7 16 1 -3
BITMAP
86
86
86
86
86
86
86
86
8E
DA
FA
E0
80
80
80
80
ENDCHAR
STARTCHAR paragraph
ENCODING 182
SWIDTH 447 0
DWIDTH 11 0
BBX 9 15 1 0
BITMAP
7F00
FF00
FD00
FD00
F500
4500
0500
0500
0580
0780
0780
0780
0680
0680
0480
ENDCHAR
STARTCHAR periodcentered
ENCODING 183
SWIDTH 128 0
DWIDTH 3 0
BBX 2 2 0 5
BITMAP
C0
40
ENDCHAR
STARTCHAR cedilla
ENCODING 184
SWIDTH 322 0
DWIDTH 8 0
BBX 6 8 1 -7
BITMAP
40
40
C0
70
38
0C
1C
78
ENDCHAR
STARTCHAR onesuperior
ENCODING 185
SWIDTH 112 0
DWIDTH 3 0
BBX 1 8 1 4
BITMAP
80
80
80
80
80
80
80
80
ENDCHAR
STARTCHAR ordmasculine
ENCODING 186
SWIDTH 212 0
DWIDTH 5 0
BBX 5 7 0 3
BITMAP
20
50
48
88
88
90
60
ENDCHAR
STARTCHAR guillemotright
ENCODING 187
SWIDTH 625 0
DWIDTH 15 0
BBX 13 13 1 3
BITMAP
8400
E700
39C0
0E60
0318
0118
0110
0220
0CC0
1980
3300
6600
CC00
ENDCHAR
STARTCHAR onequarter
ENCODING 188
SWIDTH 678 0
DWIDTH 16 0
BBX 14 19 1 -2
BITMAP
0400
0400
0400
0800
8820
8820
9860
90E0
91A0
B120
A224
A5F8
AA20
C020
4020
4020
8020
8000
8000
ENDCHAR
STARTCHAR onehalf
ENCODING 189
SWIDTH 693 0
DWIDTH 17 0
BBX 14 19 1 -2
BITMAP
0300
0200
0200
8600
8400
8400
8400
89C0
8A40
8C40
9040
9040
9080
3080
218C
21F0
6300
4000
4000
ENDCHAR
STARTCHAR threequarters
ENCODING 190
SWIDTH 868 0
DWIDTH 21 0
BBX 16 19 1 -2
BITMAP
0008
0010
3C10
C418
0838
1034
3C34
7364
0164
0145
02DE
05E4
0884
1084
0104
0104
0104
0200
0200
ENDCHAR
STARTCHAR questiondown
ENCODING 191
SWIDTH 541 0
DWIDTH 13 0
BBX 10 20 2 -1
BITMAP
0400
0000
0000
0000
0000
0000
0000
0000
1E00
0300
0200
0600
0C00
1800
2000
4000
C000
80C0
C3C0
7E00
ENDCHAR
STARTCHAR Agrave
ENCODING 192
SWIDTH 390 0
DWIDTH 9 0
BBX 11 23 1 -1
BITMAP
2000
3000
1000
1000
0000
2000
3000
7000
7000
6800
4800
4800
4400
4400
46E0
4720
4E00
F200
C200
C100
8100
8100
0100
ENDCHAR
STARTCHAR Aacute
ENCODING 193
SWIDTH 390 0
DWIDTH 9 0
BBX 11 22 1 0
BITMAP
2000
6000
4000
0000
6000
6000
7000
5000
5000
4800
4800
4800
CC00
C4C0
C720
CE00
F600
C200
8200
8300
8100
0100
ENDCHAR
STARTCHAR Acircumflex
ENCODING 194
SWIDTH 390 0
DWIDTH 9 0
BBX 13 24 -1 0
BITMAP
1800
3C00
2600
6300
4180
8100
1800
1800
1C00
1400
1400
1200
1200
1200
3300
3130
31C8
3380
3D80
3080
2080
20C0
2040
0040
ENDCHAR
STARTCHAR Atilde
ENCODING 195
SWIDTH 390 0
DWIDTH 9 0
BBX 12 24 0 0
BITMAP
7180
9980
8F00
0400
0000
0000
3000
3000
3800
2800
2800
2400
2400
2400
6600
6260
6390
6700
7B00
6100
4100
4180
4080
0080
ENDCHAR
STARTCHAR Adieresis
ENCODING 196
SWIDTH 390 0
DWIDTH 9 0
BBX 11 21 1 0
BITMAP
D800
4800
0000
6000
6000
7000
5000
5000
4800
4800
4800
CC00
C4C0
C720
CE00
F600
C200
8200
8300
8100
0100
ENDCHAR
STARTCHAR Aring
ENCODING 197
SWIDTH 390 0
DWIDTH 9 0
BBX 12 21 0 0
BITMAP
7800
CC00
CC00
7800
3000
3800
2800
2800
2400
2400
2400
6600
6260
6390
6700
7B00
6100
4100
4180
4080
0080
ENDCHAR
STARTCHAR AE
ENCODING 198
SWIDTH 708 0
DWIDTH 17 0
BBX 16 17 1 1
BITMAP
6006
6638
72E0
5380
5200
4A00
4A04
4A08
CE30
C7C0
C700
CF00
F703
C30C
8318
8360
83C0
ENDCHAR
STARTCHAR Ccedilla
ENCODING 199
SWIDTH 487 0
DWIDTH 12 0
BBX 10 25 1 -8
BITMAP
1E00
1100
2000
2000
4000
4000
4000
C000
8000
8000
8040
80C0
8080
8100
8300
CC00
7800
1000
1000
1800
1E00
0300
0300
1F00
1800
ENDCHAR
STARTCHAR Egrave
ENCODING 200
SWIDTH 474 0
DWIDTH 11 0
BBX 10 22 1 0
BITMAP
2000
3000
1000
0800
0080
8700
DC00
F000
C000
C000
4000
4300
4C00
5800
6000
4000
40C0
4180
4600
4C00
7000
4000
ENDCHAR
STARTCHAR Eacute
ENCODING 201
SWIDTH 474 0
DWIDTH 11 0
BBX 10 21 1 0
BITMAP
0C00
0800
1000
0080
8700
DC00
F000
C000
C000
4000
4300
4C00
5800
6000
4000
40C0
4180
4600
4C00
7000
4000
ENDCHAR
STARTCHAR Ecircumflex
ENCODING 202
SWIDTH 474 0
DWIDTH 11 0
BBX 10 25 1 0
BITMAP
0800
1400
3200
2100
6180
4080
0000
0080
8700
DC00
F000
C000
C000
4000
4300
4C00
5800
6000
4000
40C0
4180
4600
4C00
7000
4000
ENDCHAR
STARTCHAR Edieresis
ENCODING 203
SWIDTH 474 0
DWIDTH 11 0
BBX 10 21 1 0
BITMAP
3600
2400
0000
0080
8700
DC00
F000
C000
C000
4000
4300
4C00
5800
6000
4000
40C0
4180
4600
4C00
7000
4000
ENDCHAR
STARTCHAR Igrave
ENCODING 204
SWIDTH 153 0
DWIDTH 4 0
BBX 3 23 0 0
BITMAP
80
C0
60
20
00
40
60
60
20
20
20
20
20
20
20
20
20
20
20
20
20
20
20
ENDCHAR
STARTCHAR Iacute
ENCODING 205
SWIDTH 153 0
DWIDTH 4 0
BBX 3 22 1 0
BITMAP
60
C0
80
00
80
C0
40
40
40
40
40
40
40
40
40
40
40
40
40
40
40
40
ENDCHAR
STARTCHAR Icircumflex
ENCODING 206
SWIDTH 153 0
DWIDTH 4 0
BBX 9 24 -2 0
BITMAP
1800
3C00
2600
4200
4180
8100
1000
1800
1800
0800
0800
0800
0800
0800
0800
0800
0800
0800
0800
0800
0800
0800
0800
0800
ENDCHAR
STARTCHAR Idieresis
ENCODING 207
SWIDTH 153 0
DWIDTH 4 0
BBX 5 21 0 0
BITMAP
98
90
00
40
60
60
20
20
20
20
20
20
20
20
20
20
20
20
20
20
20
ENDCHAR
STARTCHAR Eth
ENCODING 208
SWIDTH 554 0
DWIDTH 13 0
BBX 13 18 0 0
BITMAP
2000
3C00
3FE0
7030
3018
3008
1008
1010
1010
1020
1060
1040
FE80
1180
1300
1600
0C00
0800
ENDCHAR
STARTCHAR Ntilde
ENCODING 209
SWIDTH 541 0
DWIDTH 13 0
BBX 11 22 1 0
BITMAP
7880
C980
8F00
0600
00C0
0040
8040
8040
C040
E040
B040
9840
C840
CC40
4640
4340
4140
40C0
40E0
4060
4060
4000
ENDCHAR
STARTCHAR Ograve
ENCODING 210
SWIDTH 382 0
DWIDTH 9 0
BBX 9 21 0 0
BITMAP
0400
0600
0200
0100
0000
0E00
1B00
3100
2180
6180
6080
4180
4180
4180
C100
C100
C300
C300
4600
7C00
3800
ENDCHAR
STARTCHAR Oacute
ENCODING 211
SWIDTH 382 0
DWIDTH 9 0
BBX 9 20 0 0
BITMAP
0C00
1800
1000
0000
0E00
1B00
3100
2180
6180
6080
4180
4180
4180
C100
C100
C300
C300
4600
7C00
3800
ENDCHAR
STARTCHAR Ocircumflex
ENCODING 212
SWIDTH 382 0
DWIDTH 9 0
BBX 9 22 0 0
BITMAP
1800
1400
2600
2300
4180
C080
0E00
1B00
3100
2180
6180
6080
4180
4180
4180
C100
C100
C300
C300
4600
7C00
3800
ENDCHAR
STARTCHAR Otilde
ENCODING 213
SWIDTH 382 0
DWIDTH 9 0
BBX 10 21 0 0
BITMAP
3C40
64C0
4780
0300
0000
0E00
1B00
3100
2180
6180
6080
4180
4180
4180
C100
C100
C300
C300
4600
7C00
3800
ENDCHAR
STARTCHAR Odieresis
ENCODING 214
SWIDTH 382 0
DWIDTH 9 0
BBX 9 19 0 0
BITMAP
1900
0900
0000
0E00
1B00
3100
2180
6180
6080
4180
4180
4180
C100
C100
C300
C300
4600
7C00
3800
ENDCHAR
STARTCHAR multiply
ENCODING 215
SWIDTH 454 0
DWIDTH 11 0
BBX 6 8 2 3
BITMAP
84
4C
68
30
30
48
88
0C
ENDCHAR
STARTCHAR Oslash
ENCODING 216
SWIDTH 382 0
DWIDTH 9 0
BBX 9 19 0 -2
BITMAP
0100
0F00
1B00
3300
2780
6580
6480
4580
4980
4980
C900
D100
D300
D300
6600
7C00
3800
6000
4000
ENDCHAR
STARTCHAR Ugrave
ENCODING 217
SWIDTH 450 0
DWIDTH 11 0
BBX 9 22 1 -3
BITMAP
1000
1000
1800
0800
0080
8180
8180
8180
8180
8180
8180
8380
8380
8280
8280
8680
C480
7880
3080
0080
0080
0080
ENDCHAR
STARTCHAR Uacute
ENCODING 218
SWIDTH 450 0
DWIDTH 11 0
BBX 9 20 1 -3
BITMAP
0400
0C00
1880
8180
8180
8180
8180
8180
8180
8380
8380
8280
8280
8680
C480
7880
3080
0080
0080
0080
ENDCHAR
STARTCHAR Ucircumflex
ENCODING 219
SWIDTH 450 0
DWIDTH 11 0
BBX 9 25 1 -3
BITMAP
1800
3C00
2600
6200
4180
8100
0000
0080
8180
8180
8180
8180
8180
8180
8380
8380
8280
8280
8680
C480
7880
3080
0080
0080
0080
ENDCHAR
STARTCHAR Udieresis
ENCODING 220
SWIDTH 450 0
DWIDTH 11 0
BBX 9 21 1 -3
BITMAP
3600
2400
0000
0080
8180
8180
8180
8180
8180
8180
8380
8380
8280
8280
8680
C480
7880
3080
0080
0080
0080
ENDCHAR
STARTCHAR Yacute
ENCODING 221
SWIDTH 483 0
DWIDTH 12 0
BBX 11 22 0 0
BITMAP
0300
0200
0400
0020
0020
0020
0040
C040
4040
60C0
3080
1880
0D80
0700
0300
0300
0200
0200
0600
0400
0400
0C00
ENDCHAR
STARTCHAR Thorn
ENCODING 222
SWIDTH 398 0
DWIDTH 10 0
BBX 8 19 1 0
BITMAP
C0
80
80
86
BF
A3
C1
C1
81
83
86
8C
B8
E0
80
80
80
80
80
ENDCHAR
STARTCHAR germandbls
ENCODING 223
SWIDTH 537 0
DWIDTH 13 0
BBX 11 17 1 0
BITMAP
1F00
B100
C100
C200
8400
8DE0
DE20
7820
7020
6040
4080
4100
4300
2600
2C00
2800
2000
ENDCHAR
STARTCHAR agrave
ENCODING 224
SWIDTH 366 0
DWIDTH 9 0
BBX 8 18 0 0
BITMAP
10
10
18
08
00
06
0E
1A
32
22
67
47
4D
C9
99
B1
E1
41
ENDCHAR
STARTCHAR aacute
ENCODING 225
SWIDTH 366 0
DWIDTH 9 0
BBX 8 17 0 0
BITMAP
04
0C
18
00
06
0E
1A
32
22
67
47
4D
C9
99
B1
E1
41
ENDCHAR
STARTCHAR acircumflex
ENCODING 226
SWIDTH 366 0
DWIDTH 9 0
BBX 9 22 0 0
BITMAP
1800
3C00
2600
6200
4180
8100
0000
0000
0000
0600
0E00
1A00
3200
2200
6700
4700
4D00
C900
9900
B100
E100
4100
ENDCHAR
STARTCHAR atilde
ENCODING 227
SWIDTH 366 0
DWIDTH 9 0
BBX 10 18 0 0
BITMAP
38C0
4C80
4780
0200
0000
0600
0E00
1A00
3200
2200
6700
4700
4D00
C900
9900
B100
E100
4100
ENDCHAR
STARTCHAR adieresis
ENCODING 228
SWIDTH 366 0
DWIDTH 9 0
BBX 8 18 0 0
BITMAP
36
24
00
00
00
06
0E
1A
32
22
67
47
4D
C9
99
B1
E1
41
ENDCHAR
STARTCHAR aring
ENCODING 229
SWIDTH 366 0
DWIDTH 9 0
BBX 8 16 0 0
BITMAP
1E
23
33
1E
0E
1A
32
22
67
47
4D
C9
99
B1
E1
41
ENDCHAR
STARTCHAR ae
ENCODING 230
SWIDTH 705 0
DWIDTH 17 0
BBX 17 13 0 0
BITMAP
067C00
0E4400
1ACE00
329800
23E000
67C000
478180
4D0300
C90200
990600
B18800
E1F000
410000
ENDCHAR
STARTCHAR ccedilla
ENCODING 231
SWIDTH 390 0
DWIDTH 9 0
BBX 8 21 1 -7
BITMAP
38
68
C8
C8
80
80
80
80
81
83
82
86
CC
78
20
20
38
1C
06
06
3C
ENDCHAR
STARTCHAR egrave
ENCODING 232
SWIDTH 461 0
DWIDTH 11 0
BBX 11 18 0 0
BITMAP
0800
0C00
0400
0400
0000
0E00
1F00
1180
3300
2600
7800
6000
E060
40C0
4180
4100
2600
3C00
ENDCHAR
STARTCHAR eacute
ENCODING 233
SWIDTH 461 0
DWIDTH 11 0
BBX 11 17 0 0
BITMAP
0200
0600
0400
0000
0E00
1F00
1180
3300
2600
7800
6000
E060
40C0
4180
4100
2600
3C00
ENDCHAR
STARTCHAR ecircumflex
ENCODING 234
SWIDTH 461 0
DWIDTH 11 0
BBX 11 22 0 0
BITMAP
0C00
0A00
1300
1180
20C0
6080
0000
0000
0000
0E00
1F00
1180
3300
2600
7800
6000
E060
40C0
4180
4100
2600
3C00
ENDCHAR
STARTCHAR edieresis
ENCODING 235
SWIDTH 461 0
DWIDTH 11 0
BBX 11 18 0 0
BITMAP
1B00
1100
0000
0000
0000
0E00
1F00
1180
3300
2600
7800
6000
E060
40C0
4180
4100
2600
3C00
ENDCHAR
STARTCHAR igrave
ENCODING 236
SWIDTH 132 0
DWIDTH 3 0
BBX 2 20 0 0
BITMAP
80
80
C0
40
00
00
40
40
40
40
40
40
40
40
40
40
40
40
40
40
ENDCHAR
STARTCHAR iacute
ENCODING 237
SWIDTH 132 0
DWIDTH 3 0
BBX 3 20 1 0
BITMAP
60
C0
80
00
00
00
80
80
80
80
80
80
80
80
80
80
80
80
80
80
ENDCHAR
STARTCHAR icircumflex
ENCODING 238
SWIDTH 132 0
DWIDTH 3 0
BBX 9 22 -3 0
BITMAP
1800
1400
2600
2300
4180
C080
0000
0000
0800
0800
0800
0800
0800
0800
0800
0800
0800
0800
0800
0800
0800
0800
ENDCHAR
STARTCHAR idieresis
ENCODING 239
SWIDTH 132 0
DWIDTH 3 0
BBX 5 18 -1 0
BITMAP
D8
48
00
00
20
20
20
20
20
20
20
20
20
20
20
20
20
20
ENDCHAR
STARTCHAR eth
ENCODING 240
SWIDTH 481 0
DWIDTH 12 0
BBX 9 15 2 0
BITMAP
3000
1000
1800
0800
1F80
7C00
0600
0200
F200
9A00
8E00
8600
8400
CC00
7000
ENDCHAR
STARTCHAR ntilde
ENCODING 241
SWIDTH 483 0
DWIDTH 12 0
BBX 10 20 1 0
BITMAP
38C0
4CC0
4780
0200
0000
0000
8300
8F80
8C80
9880
9880
9080
D0C0
F0C0
E0C0
E0C0
E0C0
E0C0
C040
4000
ENDCHAR
STARTCHAR ograve
ENCODING 242
SWIDTH 266 0
DWIDTH 6 0
BBX 6 18 0 0
BITMAP
40
20
30
10
00
30
78
44
44
44
44
C4
C4
CC
48
48
70
60
ENDCHAR
STARTCHAR oacute
ENCODING 243
SWIDTH 266 0
DWIDTH 6 0
BBX 6 17 0 0
BITMAP
18
18
20
00
30
78
44
44
44
44
C4
C4
CC
48
48
70
60
ENDCHAR
STARTCHAR ocircumflex
ENCODING 244
SWIDTH 266 0
DWIDTH 6 0
BBX 8 22 -1 0
BITMAP
18
3C
24
42
41
81
00
00
00
18
3C
22
22
22
22
62
62
66
24
24
38
30
ENDCHAR
STARTCHAR otilde
ENCODING 245
SWIDTH 266 0
DWIDTH 6 0
BBX 9 18 -1 0
BITMAP
7880
C980
CF00
0600
0000
1800
3C00
2200
2200
2200
2200
6200
6200
6600
2400
2400
3800
3000
ENDCHAR
STARTCHAR odieresis
ENCODING 246
SWIDTH 266 0
DWIDTH 6 0
BBX 6 18 0 0
BITMAP
6C
48
00
00
00
30
78
44
44
44
44
C4
C4
CC
48
48
70
60
ENDCHAR
STARTCHAR divide
ENCODING 247
SWIDTH 345 0
DWIDTH 8 0
BBX 7 7 1 3
BITMAP
20
00
1E
F8
00
00
10
ENDCHAR
STARTCHAR oslash
ENCODING 248
SWIDTH 266 0
DWIDTH 6 0
BBX 6 16 0 -2
BITMAP
04
34
7C
4C
4C
54
54
D4
E4
EC
68
48
70
E0
80
80
ENDCHAR
STARTCHAR ugrave
ENCODING 249
SWIDTH 387 0
DWIDTH 9 0
BBX 8 18 1 0
BITMAP
20
30
10
10
00
00
80
86
86
86
86
86
86
86
8E
CA
5A
73
ENDCHAR
STARTCHAR uacute
ENCODING 250
SWIDTH 387 0
DWIDTH 9 0
BBX 8 17 1 0
BITMAP
0C
18
10
00
00
80
86
86
86
86
86
86
86
8E
CA
5A
73
ENDCHAR
STARTCHAR ucircumflex
ENCODING 251
SWIDTH 387 0
DWIDTH 9 0
BBX 8 22 1 0
BITMAP
30
28
44
46
83
81
00
00
00
00
80
86
86
86
86
86
86
86
8E
CA
5A
73
ENDCHAR
STARTCHAR udieresis
ENCODING 252
SWIDTH 387 0
DWIDTH 9 0
BBX 8 18 1 0
BITMAP
6C
24
00
00
00
00
80
86
86
86
86
86
86
86
8E
CA
5A
73
ENDCHAR
STARTCHAR yacute
ENCODING 253
SWIDTH 363 0
DWIDTH 9 0
BBX 7 26 1 -9
BITMAP
08
18
10
00
02
02
82
82
C2
62
22
32
1A
0A
0E
06
06
02
06
06
06
06
04
04
04
04
ENDCHAR
STARTCHAR thorn
ENCODING 254
SWIDTH 439 0
DWIDTH 11 0
BBX 9 17 1 -1
BITMAP
8000
8600
9D80
E080
C180
8100
8200
8600
9800
B000
E000
C000
8000
8000
8000
8000
8000
ENDCHAR
STARTCHAR ydieresis
ENCODING 255
SWIDTH 363 0
DWIDTH 9 0
BBX 7 27 1 -9
BITMAP
6C
48
00
00
00
02
02
82
82
C2
62
22
32
1A
0A
0E
06
06
02
06
06
06
06
04
04
04
04
ENDCHAR
STARTCHAR Amacron
ENCODING 256
SWIDTH 390 0
DWIDTH 9 0
BBX 12 21 0 0
BITMAP
0780
FE00
0000
3000
3000
3800
2800
2800
2400
2400
2400
6600
6260
6390
6700
7B00
6100
4100
4180
4080
0080
ENDCHAR
STARTCHAR amacron
ENCODING 257
SWIDTH 366 0
DWIDTH 9 0
BBX 9 18 0 0
BITMAP
0780
FE00
0000
0000
0000
0600
0E00
1A00
3200
2200
6700
4700
4D00
C900
9900
B100
E100
4100
ENDCHAR
STARTCHAR Abreve
ENCODING 258
SWIDTH 390 0
DWIDTH 9 0
BBX 11 23 1 0
BITMAP
0400
CC00
7800
3000
0000
6000
6000
7000
5000
5000
4800
4800
4800
CC00
C4C0
C720
CE00
F600
C200
8200
8300
8100
0100
ENDCHAR
STARTCHAR abreve
ENCODING 259
SWIDTH 366 0
DWIDTH 9 0
BBX 8 18 0 0
BITMAP
01
23
1E
08
00
06
0E
1A
32
22
67
47
4D
C9
99
B1
E1
41
ENDCHAR
STARTCHAR Aogonek
ENCODING 260
SWIDTH 390 0
DWIDTH 9 0
BBX 11 24 1 -6
BITMAP
6000
6000
7000
5000
5000
4800
4800
4800
CC00
C4C0
C720
CE00
F600
C200
8200
8300
8100
0100
0300
0600
0400
0400
07E0
0380
ENDCHAR
STARTCHAR aogonek
ENCODING 261
SWIDTH 366 0
DWIDTH 9 0
BBX 11 18 0 -5
BITMAP
0600
0E00
1A00
3200
2200
6700
4700
4D00
C900
9900
B100
E100
4300
0600
0400
0400
06E0
03C0
ENDCHAR
STARTCHAR Cacute
ENCODING 262
SWIDTH 487 0
DWIDTH 12 0
BBX 10 21 1 0
BITMAP
0400
0C00
0800
0000
1E00
1100
2000
2000
4000
4000
4000
C000
8000
8000
8040
80C0
8080
8100
8300
CC00
7800
ENDCHAR
STARTCHAR cacute
ENCODING 263
SWIDTH 390 0
DWIDTH 9 0
BBX 8 19 1 0
BITMAP
18
30
20
00
00
38
68
C8
C8
80
80
80
80
81
83
82
86
CC
78
ENDCHAR
STARTCHAR Ccircumflex
ENCODING 264
SWIDTH 487 0
DWIDTH 12 0
BBX 10 24 1 0
BITMAP
1800
1400
2200
2300
4180
4080
0000
1E00
1100
2000
2000
4000
4000
4000
C000
8000
8000
8040
80C0
8080
8100
8300
CC00
7800
ENDCHAR
STARTCHAR ccircumflex
ENCODING 265
SWIDTH 390 0
DWIDTH 9 0
BBX 8 22 1 0
BITMAP
30
28
44
46
83
81
00
00
38
68
C8
C8
80
80
80
80
81
83
82
86
CC
78
ENDCHAR
STARTCHAR Cdotaccent
ENCODING 266
SWIDTH 487 0
DWIDTH 12 0
BBX 10 21 1 0
BITMAP
0C00
0800
0000
0000
1E00
1100
2000
2000
4000
4000
4000
C000
8000
8000
8040
80C0
8080
8100
8300
CC00
7800
ENDCHAR
STARTCHAR cdotaccent
ENCODING 267
SWIDTH 390 0
DWIDTH 9 0
BBX 8 17 1 0
BITMAP
20
20
00
30
78
C8
C8
80
80
80
80
81
82
82
86
CC
78
ENDCHAR
STARTCHAR Ccaron
ENCODING 268
SWIDTH 487 0
DWIDTH 12 0
BBX 10 22 1 0
BITMAP
4080
2100
1600
1C00
0000
1E00
1100
2000
2000
4000
4000
4000
C000
8000
8000
8040
80C0
8080
8100
8300
CC00
7800
ENDCHAR
STARTCHAR ccaron
ENCODING 269
SWIDTH 390 0
DWIDTH 9 0
BBX 8 19 1 0
BITMAP
83
46
2C
30
00
38
68
C8
C8
80
80
80
80
81
83
82
86
CC
78
ENDCHAR
STARTCHAR Dcaron
ENCODING 270
SWIDTH 554 0
DWIDTH 13 0
BBX 12 22 1 0
BITMAP
2040
1080
0900
0600
4000
7800
7FC0
E060
6030
6010
2010
2020
2020
2040
20C0
2080
2100
2300
2600
2C00
1800
1000
ENDCHAR
STARTCHAR Emacron
ENCODING 274
SWIDTH 474 0
DWIDTH 11 0
BBX 10 21 1 0
BITMAP
0F00
FE00
0000
0080
8700
DC00
F000
C000
C000
4000
4300
4C00
5800
6000
4000
40C0
4180
4600
4C00
7000
4000
ENDCHAR
STARTCHAR emacron
ENCODING 275
SWIDTH 461 0
DWIDTH 11 0
BBX 11 18 0 0
BITMAP
03C0
7F00
0000
0000
0000
0E00
1F00
1180
3300
2600
7800
6000
E060
40C0
4180
4100
2600
3C00
ENDCHAR
STARTCHAR Ebreve
ENCODING 276
SWIDTH 474 0
DWIDTH 11 0
BBX 10 22 1 0
BITMAP
0100
2300
1E00
0800
0080
8700
DC00
F000
C000
C000
4000
4300
4C00
5800
6000
4000
40C0
4180
4600
4C00
7000
4000
ENDCHAR
STARTCHAR ebreve
ENCODING 277
SWIDTH 461 0
DWIDTH 11 0
BBX 11 18 0 0
BITMAP
0080
1180
0F00
0400
0000
0E00
1F00
1180
3300
2600
7800
6000
E060
40C0
4180
4100
2600
3C00
ENDCHAR
STARTCHAR Edotaccent
ENCODING 278
SWIDTH 474 0
DWIDTH 11 0
BBX 10 20 1 0
BITMAP
1800
1000
0080
8700
DC00
F000
C000
C000
4000
4300
4C00
5800
6000
4000
40C0
4180
4600
4C00
7000
4000
ENDCHAR
STARTCHAR edotaccent
ENCODING 279
SWIDTH 461 0
DWIDTH 11 0
BBX 11 15 0 0
BITMAP
0600
0400
0E00
1F00
1180
3300
2600
7800
6000
E060
40C0
4180
4100
2600
3C00
ENDCHAR
STARTCHAR Eogonek
ENCODING 280
SWIDTH 474 0
DWIDTH 11 0
BBX 10 19 1 -2
BITMAP
8780
DC00
F000
C000
C000
4000
4300
4C00
5800
6000
4000
40C0
4180
4600
4C00
7800
4800
08C0
0780
ENDCHAR
STARTCHAR eogonek
ENCODING 281
SWIDTH 461 0
DWIDTH 11 0
BBX 11 18 0 -5
BITMAP
0E00
1F00
1180
3300
2600
7800
6000
E060
40C0
4180
4100
2600
3C00
1800
1000
1000
1B80
0F00
ENDCHAR
STARTCHAR Ecaron
ENCODING 282
SWIDTH 474 0
DWIDTH 11 0
BBX 10 22 1 0
BITMAP
C100
4200
2400
1800
0080
8700
DC00
F000
C000
C000
4000
4300
4C00
5800
6000
4000
40C0
4180
4600
4C00
7000
4000
ENDCHAR
STARTCHAR ecaron
ENCODING 283
SWIDTH 461 0
DWIDTH 11 0
BBX 11 19 0 0
BITMAP
20C0
1180
1A00
0C00
0000
0000
0E00
1F00
1180
3300
2600
7800
6000
E060
40C0
4180
4100
2600
3C00
ENDCHAR
STARTCHAR Gcircumflex
ENCODING 284
SWIDTH 591 0
DWIDTH 14 0
BBX 14 25 0 -3
BITMAP
0300
0500
0480
0840
1820
1020
00C0
0380
0600
0C00
0800
1000
300C
20F8
2110
4030
4030
4070
C0D0
4190
7F10
1810
0010
0010
0010
ENDCHAR
STARTCHAR gcircumflex
ENCODING 285
SWIDTH 437 0
DWIDTH 11 0
BBX 10 32 0 -10
BITMAP
0C00
1E00
1200
2100
2080
4080
0000
0000
0000
0780
0D80
1180
3280
2280
6680
4480
4C80
C880
D8C0
70C0
60C0
00C0
00C0
00C0
0080
0080
0080
0180
0100
0300
0600
3C00
ENDCHAR
STARTCHAR Gbreve
ENCODING 286
SWIDTH 591 0
DWIDTH 14 0
BBX 14 23 0 -3
BITMAP
0020
0460
03C0
0180
00C0
0380
0600
0C00
0800
1000
300C
20F8
2110
4030
4030
4070
C0D0
4190
7F10
1810
0010
0010
0010
ENDCHAR
STARTCHAR gbreve
ENCODING 287
SWIDTH 437 0
DWIDTH 11 0
BBX 10 30 0 -10
BITMAP
0100
1100
0F00
0400
0000
0000
0000
0780
0D80
1180
3280
2280
6680
4480
4C80
C880
D8C0
70C0
60C0
00C0
00C0
00C0
0080
0080
0080
0180
0100
0300
0600
3C00
ENDCHAR
STARTCHAR Gdotaccent
ENCODING 288
SWIDTH 591 0
DWIDTH 14 0
BBX 13 23 1 -3
BITMAP
0200
0600
0000
0000
0180
03C0
0400
0800
1000
3000
2018
61F0
4030
4030
8060
80E0
81A0
8320
FE20
3820
0020
0030
0020
ENDCHAR
STARTCHAR gdotaccent
ENCODING 289
SWIDTH 437 0
DWIDTH 11 0
BBX 10 26 0 -10
BITMAP
0200
0200
0000
0780
0D80
1180
3280
2280
6680
4480
4C80
C880
D8C0
70C0
60C0
00C0
00C0
00C0
0080
0080
0080
0180
0100
0300
0600
3C00
ENDCHAR
STARTCHAR Gcommaaccent
ENCODING 290
SWIDTH 591 0
DWIDTH 14 0
BBX 14 24 0 -8
BITMAP
00C0
0380
0600
0C00
0800
1000
300C
20F8
2110
4030
4030
4070
C0D0
4190
7F10
1810
0010
0010
0110
0300
0300
0300
0200
0200
ENDCHAR
STARTCHAR Hcircumflex
ENCODING 292
SWIDTH 424 0
DWIDTH 10 0
BBX 8 24 1 0
BITMAP
30
28
44
46
83
81
00
00
82
82
82
82
82
83
83
87
8D
F1
C1
81
81
81
81
81
ENDCHAR
STARTCHAR hcircumflex
ENCODING 293
SWIDTH 466 0
DWIDTH 11 0
BBX 11 22 1 0
BITMAP
0600
0F00
0980
1880
9060
A040
8000
8000
8000
8000
8300
8F80
9C80
9880
B080
B080
A0C0
E0C0
C0C0
C0C0
80C0
80C0
ENDCHAR
STARTCHAR Hbar
ENCODING 294
SWIDTH 424 0
DWIDTH 10 0
BBX 9 16 0 0
BITMAP
4100
4100
4100
4100
7F80
C180
4180
4380
4680
7880
6080
4080
4080
4080
4080
4080
ENDCHAR
STARTCHAR hbar
ENCODING 295
SWIDTH 466 0
DWIDTH 11 0
BBX 12 18 -1 0
BITMAP
2000
2000
2000
2000
2000
3F00
F0C0
23E0
2720
2620
2C20
2C20
2830
3830
3030
3030
2030
2030
ENDCHAR
STARTCHAR Itilde
ENCODING 296
SWIDTH 153 0
DWIDTH 4 0
BBX 9 23 -2 0
BITMAP
F180
9B00
8F00
0400
0000
1000
1800
1800
0800
0800
0800
0800
0800
0800
0800
0800
0800
0800
0800
0800
0800
0800
0800
ENDCHAR
STARTCHAR itilde
ENCODING 297
SWIDTH 132 0
DWIDTH 3 0
BBX 9 19 -3 0
BITMAP
7880
C980
CF00
0600
0000
0800
0800
0800
0800
0800
0800
0800
0800
0800
0800
0800
0800
0800
0800
ENDCHAR
STARTCHAR imacron
ENCODING 299
SWIDTH 132 0
DWIDTH 3 0
BBX 9 18 -3 0
BITMAP
0780
FE00
0000
0000
0800
0800
0800
0800
0800
0800
0800
0800
0800
0800
0800
0800
0800
0800
ENDCHAR
STARTCHAR Ibreve
ENCODING 300
SWIDTH 153 0
DWIDTH 4 0
BBX 6 24 -1 0
BITMAP
04
CC
78
30
00
00
20
30
30
10
10
10
10
10
10
10
10
10
10
10
10
10
10
10
ENDCHAR
STARTCHAR ibreve
ENCODING 301
SWIDTH 132 0
DWIDTH 3 0
BBX 6 19 -1 0
BITMAP
84
CC
78
00
00
20
20
20
20
20
20
20
20
20
20
20
20
20
20
ENDCHAR
STARTCHAR Iogonek
ENCODING 302
SWIDTH 153 0
DWIDTH 4 0
BBX 6 23 0 -5
BITMAP
40
60
60
20
20
20
20
20
20
20
20
20
20
20
20
20
20
60
40
C0
C0
7C
30
ENDCHAR
STARTCHAR iogonek
ENCODING 303
SWIDTH 132 0
DWIDTH 3 0
BBX 6 24 -1 -6
BITMAP
60
20
00
00
20
20
20
20
20
20
20
20
20
20
20
20
20
20
60
40
C0
C4
7C
10
ENDCHAR
STARTCHAR Idotaccent
ENCODING 304
SWIDTH 153 0
DWIDTH 4 0
BBX 2 22 1 0
BITMAP
C0
C0
00
00
80
80
80
80
C0
C0
C0
C0
C0
C0
C0
C0
C0
C0
40
40
40
40
ENDCHAR
STARTCHAR dotlessi
ENCODING 305
SWIDTH 132 0
DWIDTH 3 0
BBX 1 14 1 0
BITMAP
80
80
80
80
80
80
80
80
80
80
80
80
80
80
ENDCHAR
STARTCHAR Jcircumflex
ENCODING 308
SWIDTH 371 0
DWIDTH 9 0
BBX 10 25 0 -2
BITMAP
0C00
0A00
1900
1080
20C0
2040
0200
0200
0200
0200
0200
0200
0300
0300
0300
0100
0100
0100
0100
8100
8100
4100
4100
3600
0800
ENDCHAR
STARTCHAR jcircumflex
ENCODING 309
SWIDTH 112 0
DWIDTH 3 0
BBX 10 30 -4 -8
BITMAP
0C00
1E00
1300
2100
20C0
4080
0000
0000
0000
0000
0400
0400
0400
0400
0400
0400
0400
0400
0400
0400
0400
0400
0400
0600
0600
0400
0400
8400
4C00
3800
ENDCHAR
STARTCHAR Kcommaaccent
ENCODING 310
SWIDTH 524 0
DWIDTH 13 0
BBX 12 24 1 -8
BITMAP
8000
8100
8300
8600
C400
CC00
5800
5000
7000
6000
6000
7010
7FE0
4000
6000
2000
0000
0000
0400
0C00
0C00
0C00
0C00
0800
ENDCHAR
STARTCHAR kcommaaccent
ENCODING 311
SWIDTH 428 0
DWIDTH 10 0
BBX 9 26 1 -8
BITMAP
C000
C000
C000
C000
C180
C300
C300
8600
8E00
8C00
9800
B000
E000
C000
E000
BC00
8780
8100
8000
0000
0800
1800
1800
1800
1000
1000
ENDCHAR
STARTCHAR Lacute
ENCODING 313
SWIDTH 537 0
DWIDTH 13 0
BBX 12 17 1 0
BITMAP
0200
0600
8C00
8000
8000
8000
8000
C000
C000
C000
C000
C000
C070
C180
C600
F800
E000
ENDCHAR
STARTCHAR lacute
ENCODING 314
SWIDTH 137 0
DWIDTH 3 0
BBX 3 26 0 0
BITMAP
60
40
80
00
00
00
40
40
40
40
40
40
40
40
40
40
40
40
40
40
60
60
60
60
60
20
ENDCHAR
STARTCHAR Lcommaaccent
ENCODING 315
SWIDTH 537 0
DWIDTH 13 0
BBX 12 23 1 -8
BITMAP
8000
8000
8000
8000
8000
C000
C000
C000
C000
C000
C070
C180
C600
F800
E000
0000
0000
0400
0C00
0400
0400
0400
0400
ENDCHAR
STARTCHAR lcommaaccent
ENCODING 316
SWIDTH 137 0
DWIDTH 3 0
BBX 2 28 1 -8
BITMAP
80
80
80
80
80
80
80
80
80
80
80
80
80
80
C0
C0
C0
C0
C0
40
00
00
80
80
80
80
80
80
ENDCHAR
STARTCHAR Lcaron
ENCODING 317
SWIDTH 537 0
DWIDTH 13 0
BBX 12 22 1 0
BITMAP
C100
4200
2400
1800
0000
0000
0000
8000
8000
8000
8000
8000
C000
C000
C000
C000
C000
C070
C180
C600
F800
E000
ENDCHAR
STARTCHAR Ldot
ENCODING 319
SWIDTH 537 0
DWIDTH 13 0
BBX 12 15 1 0
BITMAP
8000
8000
8000
8000
8000
C000
C000
C000
C400
C400
C070
C180
C600
F800
E000
ENDCHAR
STARTCHAR ldot
ENCODING 320
SWIDTH 267 0
DWIDTH 6 0
BBX 5 20 1 0
BITMAP
80
80
80
80
80
80
80
80
80
80
80
80
80
98
D0
C0
C0
C0
C0
40
ENDCHAR
STARTCHAR Lslash
ENCODING 321
SWIDTH 537 0
DWIDTH 13 0
BBX 14 15 -1 0
BITMAP
2000
2000
2000
2000
2000
3000
3000
3380
3E00
F000
301C
3060
3180
3E00
3800
ENDCHAR
STARTCHAR lslash
ENCODING 322
SWIDTH 137 0
DWIDTH 3 0
BBX 9 20 -3 0
BITMAP
0800
0800
0800
0800
0800
0800
0800
0800
0800
0800
0800
0800
0980
0F80
7C00
CC00
0C00
0C00
0C00
0400
ENDCHAR
STARTCHAR Nacute
ENCODING 323
SWIDTH 541 0
DWIDTH 13 0
BBX 11 20 1 0
BITMAP
0C00
1800
10C0
0040
8040
8040
C040
E040
B040
9840
C840
CC40
4640
4340
4140
40C0
40E0
4060
4060
4000
ENDCHAR
STARTCHAR nacute
ENCODING 324
SWIDTH 483 0
DWIDTH 12 0
BBX 10 18 1 0
BITMAP
0400
0C00
0800
0000
8300
8F80
8C80
9880
9880
9080
D0C0
F0C0
E0C0
E0C0
E0C0
E0C0
C040
4000
ENDCHAR
STARTCHAR Ncommaaccent
ENCODING 325
SWIDTH 541 0
DWIDTH 13 0
BBX 11 26 1 -8
BITMAP
00C0
0040
8040
8040
C040
E040
B040
9840
C840
CC40
4640
4340
4140
40C0
40E0
4060
4060
4000
0000
0000
0400
0C00
0400
0400
0400
0400
ENDCHAR
STARTCHAR ncommaaccent
ENCODING 326
SWIDTH 483 0
DWIDTH 12 0
BBX 10 22 1 -8
BITMAP
8300
8F80
8C80
9880
9880
9080
D0C0
F0C0
E0C0
E0C0
E0C0
E0C0
C040
4000
0000
0000
0800
0C00
0C00
0800
0800
0800
ENDCHAR
STARTCHAR Ncaron
ENCODING 327
SWIDTH 541 0
DWIDTH 13 0
BBX 11 21 1 0
BITMAP
6080
2100
1200
0CC0
0040
8040
8040
C040
E040
B040
9840
C840
CC40
4640
4340
4140
40C0
40E0
4060
4060
4000
ENDCHAR
STARTCHAR ncaron
ENCODING 328
SWIDTH 483 0
DWIDTH 12 0
BBX 10 19 1 0
BITMAP
4180
2300
1600
1800
0000
8300
8F80
8C80
9880
9880
9080
D0C0
F0C0
E0C0
E0C0
E0C0
E0C0
C040
4000
ENDCHAR
STARTCHAR napostrophe
ENCODING 329
SWIDTH 483 0
DWIDTH 12 0
BBX 10 21 1 0
BITMAP
2000
3000
3000
2000
2000
2000
0000
8300
8F80
8C80
9880
9880
9080
D0C0
F0C0
E0C0
E0C0
E0C0
E0C0
C040
4000
ENDCHAR
STARTCHAR Omacron
ENCODING 332
SWIDTH 382 0
DWIDTH 9 0
BBX 10 19 0 0
BITMAP
03C0
7F00
0000
0E00
1B00
3100
2180
6180
6080
4180
4180
4180
C100
C100
C300
C300
4600
7C00
3800
ENDCHAR
STARTCHAR omacron
ENCODING 333
SWIDTH 266 0
DWIDTH 6 0
BBX 9 18 -1 0
BITMAP
0F80
FE00
0000
0000
0000
1800
3C00
2200
2200
2200
2200
6200
6200
6600
2400
2400
3800
3000
ENDCHAR
STARTCHAR Obreve
ENCODING 334
SWIDTH 382 0
DWIDTH 9 0
BBX 9 21 0 0
BITMAP
0100
2300
1E00
0800
0000
0E00
1B00
3100
2180
6180
6080
4180
4180
4180
C100
C100
C300
C300
4600
7C00
3800
ENDCHAR
STARTCHAR obreve
ENCODING 335
SWIDTH 266 0
DWIDTH 6 0
BBX 6 18 0 0
BITMAP
04
44
3C
10
00
30
78
44
44
44
44
C4
C4
CC
48
48
70
60
ENDCHAR
STARTCHAR Ohungarumlaut
ENCODING 336
SWIDTH 382 0
DWIDTH 9 0
BBX 9 21 0 0
BITMAP
0200
0680
0D80
0900
0000
0E00
1B00
3100
2180
6180
6080
4180
4180
4180
C100
C100
C300
C300
4600
7C00
3800
ENDCHAR
STARTCHAR ohungarumlaut
ENCODING 337
SWIDTH 266 0
DWIDTH 6 0
BBX 6 18 0 0
BITMAP
10
34
6C
58
00
30
78
44
44
44
44
C4
C4
CC
48
48
70
60
ENDCHAR
STARTCHAR OE
ENCODING 338
SWIDTH 732 0
DWIDTH 18 0
BBX 17 17 0 0
BITMAP
010700
0FB800
1BE000
318000
218000
618000
608200
418C00
41B000
41E000
C18000
C18080
C38300
C38600
468800
7CF000
38C000
ENDCHAR
STARTCHAR oe
ENCODING 339
SWIDTH 628 0
DWIDTH 15 0
BBX 15 13 0 0
BITMAP
3070
78D8
4598
4530
47E0
4780
C602
C606
CE04
4E0C
4A18
7B60
6080
ENDCHAR
STARTCHAR Racute
ENCODING 340
SWIDTH 503 0
DWIDTH 12 0
BBX 11 22 1 0
BITMAP
0200
0600
0400
8000
9FC0
F060
C040
8080
8300
8600
9800
E000
C000
E000
F000
9C00
8700
81E0
8060
8000
8000
8000
ENDCHAR
STARTCHAR racute
ENCODING 341
SWIDTH 396 0
DWIDTH 10 0
BBX 8 17 1 0
BITMAP
0C
18
10
00
00
8F
98
B0
B0
A0
A0
60
60
60
60
60
60
ENDCHAR
STARTCHAR Rcommaaccent
ENCODING 342
SWIDTH 503 0
DWIDTH 12 0
BBX 11 27 1 -8
BITMAP
8000
9FC0
F060
C040
8080
8300
8600
9800
E000
C000
E000
F000
9C00
8700
81E0
8060
8000
8000
8000
0000
0000
0800
0C00
0C00
0C00
0800
0800
ENDCHAR
STARTCHAR rcommaaccent
ENCODING 343
SWIDTH 396 0
DWIDTH 10 0
BBX 8 20 1 -8
BITMAP
8F
98
B0
B0
A0
A0
60
60
60
60
60
60
00
00
10
18
18
10
10
10
ENDCHAR
STARTCHAR Rcaron
ENCODING 344
SWIDTH 503 0
DWIDTH 12 0
BBX 11 24 1 0
BITMAP
20C0
1100
1200
0C00
0000
8000
9FC0
F060
C040
8080
8300
8600
9800
E000
C000
E000
F000
9C00
8700
81E0
8060
8000
8000
8000
ENDCHAR
STARTCHAR rcaron
ENCODING 345
SWIDTH 396 0
DWIDTH 10 0
BBX 8 19 1 0
BITMAP
83
46
2C
30
00
00
00
8F
98
B0
B0
A0
A0
60
60
60
60
60
60
ENDCHAR
STARTCHAR Sacute
ENCODING 346
SWIDTH 541 0
DWIDTH 13 0
BBX 12 21 0 0
BITMAP
0100
0300
0600
0000
07C0
0C00
1000
2000
6000
4000
C000
C000
4000
3000
0FE0
0010
0010
0060
03C0
1E00
1000
ENDCHAR
STARTCHAR sacute
ENCODING 347
SWIDTH 366 0
DWIDTH 9 0
BBX 8 18 1 -1
BITMAP
08
18
30
00
00
1C
60
C0
80
80
84
FE
E3
02
04
18
70
20
ENDCHAR
STARTCHAR Scircumflex
ENCODING 348
SWIDTH 541 0
DWIDTH 13 0
BBX 12 24 0 0
BITMAP
0200
0500
0480
0840
1860
1020
0000
07C0
0C00
1000
2000
6000
4000
C000
C000
4000
3000
0FE0
0010
0010
0060
03C0
1E00
1000
ENDCHAR
STARTCHAR scircumflex
ENCODING 349
SWIDTH 366 0
DWIDTH 9 0
BBX 8 20 1 -1
BITMAP
30
28
44
46
83
81
00
1C
60
C0
80
80
84
FE
E3
02
04
18
70
20
ENDCHAR
STARTCHAR Scedilla
ENCODING 350
SWIDTH 541 0
DWIDTH 13 0
BBX 13 23 0 -6
BITMAP
07C0
0C00
1000
2000
6000
4000
C000
C000
4000
3000
0FE0
0010
0010
0060
03C0
1E80
1080
0080
00E0
0030
0018
0018
00F0
ENDCHAR
STARTCHAR scedilla
ENCODING 351
SWIDTH 366 0
DWIDTH 9 0
BBX 8 19 1 -7
BITMAP
1C
60
C0
80
80
84
FE
E3
02
04
18
70
30
30
18
1E
03
03
3E
ENDCHAR
STARTCHAR Scaron
ENCODING 352
SWIDTH 541 0
DWIDTH 13 0
BBX 12 22 0 0
BITMAP
3040
0880
0900
0600
0000
07C0
0C00
1000
2000
6000
4000
C000
C000
4000
3000
0FE0
0010
0010
0060
03C0
1E00
1000
ENDCHAR
STARTCHAR scaron
ENCODING 353
SWIDTH 366 0
DWIDTH 9 0
BBX 9 19 0 -1
BITMAP
C100
6200
2400
1800
0000
0000
0E00
3000
6000
4000
4000
4200
7F00
7180
0100
0200
0C00
3800
1000
ENDCHAR
STARTCHAR Tcommaaccent
ENCODING 354
SWIDTH 595 0
DWIDTH 14 0
BBX 17 25 0 -8
BITMAP
018F80
0FFC00
F88000
008000
008000
008000
008000
008000
008000
00C000
00C000
00C000
004000
004000
004000
004000
004000
000000
000000
002000
006000
002000
002000
002000
004000
ENDCHAR
STARTCHAR tcommaaccent
ENCODING 355
SWIDTH 268 0
DWIDTH 6 0
BBX 8 26 -1 -8
BITMAP
10
10
10
30
30
3F
3C
F0
B0
30
30
30
10
10
10
10
10
10
10
00
08
18
18
18
18
10
ENDCHAR
STARTCHAR Tcaron
ENCODING 356
SWIDTH 595 0
DWIDTH 14 0
BBX 17 23 0 0
BITMAP
060800
021000
012000
00C000
000000
000000
018F80
0FFC00
F88000
008000
008000
008000
008000
008000
008000
00C000
00C000
00C000
004000
004000
004000
004000
004000
ENDCHAR
STARTCHAR Tbar
ENCODING 358
SWIDTH 595 0
DWIDTH 14 0
BBX 17 17 0 0
BITMAP
018F80
0FFC00
F88000
008000
008000
00F800
0F8000
008000
008000
00C000
00C000
00C000
004000
004000
004000
004000
004000
ENDCHAR
STARTCHAR Utilde
ENCODING 360
SWIDTH 450 0
DWIDTH 11 0
BBX 9 23 1 -3
BITMAP
7880
C980
8F00
0600
0000
0080
8180
8180
8180
8180
8180
8180
8380
8380
8280
8280
8680
C480
7880
3080
0080
0080
0080
ENDCHAR
STARTCHAR utilde
ENCODING 361
SWIDTH 387 0
DWIDTH 9 0
BBX 9 17 0 0
BITMAP
7880
C980
8F00
0600
0000
4000
4300
4300
4300
4300
4300
4300
4300
4700
6500
2D00
3980
ENDCHAR
STARTCHAR Umacron
ENCODING 362
SWIDTH 450 0
DWIDTH 11 0
BBX 9 21 1 -3
BITMAP
0780
FE00
0000
0080
8180
8180
8180
8180
8180
8180
8380
8380
8280
8280
8680
C480
7880
3080
0080
0080
0080
ENDCHAR
STARTCHAR umacron
ENCODING 363
SWIDTH 387 0
DWIDTH 9 0
BBX 9 18 0 0
BITMAP
0780
FE00
0000
0000
0000
0000
4000
4300
4300
4300
4300
4300
4300
4300
4700
6500
2D00
3980
ENDCHAR
STARTCHAR Ubreve
ENCODING 364
SWIDTH 450 0
DWIDTH 11 0
BBX 9 21 1 -3
BITMAP
0100
2300
1E00
0880
8180
8180
8180
8180
8180
8180
8380
8380
8280
8280
8680
C480
7880
3080
0080
0080
0080
ENDCHAR
STARTCHAR ubreve
ENCODING 365
SWIDTH 387 0
DWIDTH 9 0
BBX 8 18 1 0
BITMAP
02
66
3C
18
00
00
80
86
86
86
86
86
86
86
8E
CA
5A
73
ENDCHAR
STARTCHAR Uring
ENCODING 366
SWIDTH 450 0
DWIDTH 11 0
BBX 9 22 1 -3
BITMAP
3E00
6200
2600
3C00
0080
8180
8180
8180
8180
8180
8180
8380
8380
8280
8280
8680
C480
7880
3080
0080
0080
0080
ENDCHAR
STARTCHAR uring
ENCODING 367
SWIDTH 387 0
DWIDTH 9 0
BBX 8 16 1 0
BITMAP
3C
44
44
3C
80
86
86
86
86
86
86
86
8E
CA
5A
73
ENDCHAR
STARTCHAR Uhungarumlaut
ENCODING 368
SWIDTH 450 0
DWIDTH 11 0
BBX 9 23 1 -3
BITMAP
0800
1A00
3600
2C00
0000
0080
8180
8180
8180
8180
8180
8180
8380
8380
8280
8280
8680
C480
7880
3080
0080
0080
0080
ENDCHAR
STARTCHAR uhungarumlaut
ENCODING 369
SWIDTH 387 0
DWIDTH 9 0
BBX 8 16 1 0
BITMAP
10
2C
78
50
80
86
86
86
86
86
86
86
8E
CA
5A
73
ENDCHAR
STARTCHAR Uogonek
ENCODING 370
SWIDTH 450 0
DWIDTH 11 0
BBX 12 22 1 -7
BITMAP
0080
8180
8180
8180
8180
8180
8180
8380
8380
8280
8280
8680
C480
7880
3080
0080
0180
0380
0200
0210
03E0
0080
ENDCHAR
STARTCHAR uogonek
ENCODING 371
SWIDTH 387 0
DWIDTH 9 0
BBX 10 18 1 -6
BITMAP
8000
8600
8600
8600
8600
8600
8600
8600
8E00
CA00
5A00
7300
0400
0C00
0800
0840
0F80
0300
ENDCHAR
STARTCHAR Wcircumflex
ENCODING 372
SWIDTH 878 0
DWIDTH 21 0
BBX 20 24 0 0
BITMAP
006000
005000
009800
018C00
010600
030400
000010
000010
000010
403030
C03020
603820
207820
204860
304840
304C40
108440
1884C0
188280
190280
090180
0D0180
0F0100
060000
ENDCHAR
STARTCHAR wcircumflex
ENCODING 373
SWIDTH 566 0
DWIDTH 14 0
BBX 12 22 1 0
BITMAP
0C00
0A00
1900
1180
20C0
2040
0000
0000
0000
0000
8C20
8E30
CA20
4B20
4920
68B0
28F0
3870
1870
1830
1810
0800
ENDCHAR
STARTCHAR Ycircumflex
ENCODING 374
SWIDTH 483 0
DWIDTH 12 0
BBX 11 25 0 0
BITMAP
0C00
0A00
1900
1080
20C0
2040
0020
0020
0020
0040
C040
4040
60C0
3080
1880
0D80
0700
0300
0300
0200
0200
0600
0400
0400
0C00
ENDCHAR
STARTCHAR ycircumflex
ENCODING 375
SWIDTH 363 0
DWIDTH 9 0
BBX 9 31 0 -9
BITMAP
1800
3C00
2600
6200
4180
8100
0000
0000
0000
0100
0100
4100
4100
6100
3100
1100
1900
0D00
0500
0700
0300
0300
0100
0300
0300
0300
0300
0200
0200
0200
0200
ENDCHAR
STARTCHAR Ydieresis
ENCODING 376
SWIDTH 483 0
DWIDTH 12 0
BBX 11 19 0 0
BITMAP
0020
1B20
0920
0040
C040
4040
60C0
3080
1880
0D80
0700
0300
0300
0200
0200
0600
0400
0400
0C00
ENDCHAR
STARTCHAR Zacute
ENCODING 377
SWIDTH 670 0
DWIDTH 16 0
BBX 15 22 1 0
BITMAP
0300
0200
0400
0000
0000
0000
FFF0
0030
0060
00C0
0180
0180
0300
0600
0C00
0800
1800
3000
6000
C000
FFFE
FFF8
ENDCHAR
STARTCHAR zacute
ENCODING 378
SWIDTH 618 0
DWIDTH 15 0
BBX 14 17 1 0
BITMAP
0100
0300
0600
0000
0000
0380
1F00
F300
8300
0600
0600
0400
0800
0800
187C
1FF0
1E00
ENDCHAR
STARTCHAR Zdotaccent
ENCODING 379
SWIDTH 670 0
DWIDTH 16 0
BBX 15 20 1 0
BITMAP
0100
0300
0000
0000
FFF0
0030
0060
00C0
0180
0180
0300
0600
0C00
0800
1800
3000
6000
C000
FFFE
FFF8
ENDCHAR
STARTCHAR zdotaccent
ENCODING 380
SWIDTH 618 0
DWIDTH 15 0
BBX 14 15 1 0
BITMAP
0200
0200
0000
0380
1F00
F300
8300
0600
0600
0400
0800
0800
187C
1FF0
1E00
ENDCHAR
STARTCHAR Zcaron
ENCODING 381
SWIDTH 670 0
DWIDTH 16 0
BBX 15 22 1 0
BITMAP
0830
0440
0480
0300
0000
0000
FFF0
0030
0060
00C0
0180
0180
0300
0600
0C00
0800
1800
3000
6000
C000
FFFE
FFF8
ENDCHAR
STARTCHAR zcaron
ENCODING 382
SWIDTH 618 0
DWIDTH 15 0
BBX 14 17 1 0
BITMAP
20C0
1180
0B00
0C00
0000
0380
1F00
F300
8300
0600
0600
0400
0800
0800
187C
1FF0
1E00
ENDCHAR
STARTCHAR florin
ENCODING 402
SWIDTH 345 0
DWIDTH 8 0
BBX 9 27 -1 -6
BITMAP
0E00
0F00
0900
1800
1800
1800
1800
1800
1800
1B80
1F00
3800
7800
0800
0800
0800
0800
0800
0800
0800
0800
0800
0800
0800
0800
0800
F800
ENDCHAR
STARTCHAR AEacute
ENCODING 508
SWIDTH 708 0
DWIDTH 17 0
BBX 16 21 1 1
BITMAP
0300
0600
0400
0000
6006
6638
72E0
5380
5200
4A00
4A04
4A08
CE30
C7C0
C700
CF00
F703
C30C
8318
8360
83C0
ENDCHAR
STARTCHAR aeacute
ENCODING 509
SWIDTH 705 0
DWIDTH 17 0
BBX 17 17 0 0
BITMAP
004000
00C000
018000
000000
067C00
0E4400
1ACE00
329800
23E000
67C000
478180
4D0300
C90200
990600
B18800
E1F000
410000
ENDCHAR
STARTCHAR Oslashacute
ENCODING 510
SWIDTH 382 0
DWIDTH 9 0
BBX 9 23 0 -2
BITMAP
0600
0400
0800
0000
0100
0F00
1B00
3300
2780
6580
6480
4580
4980
4980
C900
D100
D300
D300
6600
7C00
3800
6000
4000
ENDCHAR
STARTCHAR oslashacute
ENCODING 511
SWIDTH 266 0
DWIDTH 6 0
BBX 6 20 0 -2
BITMAP
18
18
20
00
04
34
7C
4C
4C
54
54
D4
E4
EC
68
48
70
E0
80
80
ENDCHAR
STARTCHAR Scommaaccent
ENCODING 536
SWIDTH 541 0
DWIDTH 13 0
BBX 12 25 0 -8
BITMAP
07C0
0C00
1000
2000
6000
4000
C000
C000
4000
3000
0FE0
0010
0010
0060
03C0
1E00
1000
0000
0000
0200
0600
0200
0200
0200
0200
ENDCHAR
STARTCHAR scommaaccent
ENCODING 537
SWIDTH 366 0
DWIDTH 9 0
BBX 8 20 1 -8
BITMAP
1C
60
C0
80
80
84
FE
E3
02
04
18
70
20
00
10
30
10
10
10
20
ENDCHAR
STARTCHAR circumflex
ENCODING 710
SWIDTH 390 0
DWIDTH 9 0
BBX 8 6 1 16
BITMAP
30
28
64
46
83
81
ENDCHAR
STARTCHAR caron
ENCODING 711
SWIDTH 390 0
DWIDTH 9 0
BBX 8 4 1 15
BITMAP
C1
42
24
18
ENDCHAR
STARTCHAR breve
ENCODING 728
SWIDTH 390 0
DWIDTH 9 0
BBX 5 4 2 14
BITMAP
08
88
78
20
ENDCHAR
STARTCHAR dotaccent
ENCODING 729
SWIDTH 128 0
DWIDTH 3 0
BBX 2 2 0 13
BITMAP
40
C0
ENDCHAR
STARTCHAR ring
ENCODING 730
SWIDTH 266 0
DWIDTH 6 0
BBX 6 4 0 12
BITMAP
7C
C4
4C
78
ENDCHAR
STARTCHAR ogonek
ENCODING 731
SWIDTH 366 0
DWIDTH 9 0
BBX 6 6 2 -6
BITMAP
60
40
C0
C0
5C
78
ENDCHAR
STARTCHAR tilde
ENCODING 732
SWIDTH 458 0
DWIDTH 11 0
BBX 9 4 1 13
BITMAP
7980
D980
8F00
0600
ENDCHAR
STARTCHAR hungarumlaut
ENCODING 733
SWIDTH 239 0
DWIDTH 6 0
BBX 5 4 0 11
BITMAP
20
68
D8
50
ENDCHAR
STARTCHAR Wgrave
ENCODING 7808
SWIDTH 878 0
DWIDTH 21 0
BBX 20 23 0 0
BITMAP
004000
002000
003000
001000
000000
000010
000010
000010
403030
C03020
603820
207820
204860
304840
304C40
108440
1884C0
188280
190280
090180
0D0180
0F0100
060000
ENDCHAR
STARTCHAR wgrave
ENCODING 7809
SWIDTH 566 0
DWIDTH 14 0
BBX 12 18 1 0
BITMAP
0800
0C00
0400
0200
0000
0000
8C20
8E30
CA20
4B20
4920
68B0
28F0
3870
1870
1830
1810
0800
ENDCHAR
STARTCHAR Wacute
ENCODING 7810
SWIDTH 878 0
DWIDTH 21 0
BBX 20 21 0 0
BITMAP
002000
006000
004000
000010
000010
000010
403030
C03020
603820
207820
204860
304840
304C40
108440
1884C0
188280
190280
090180
0D0180
0F0100
060000
ENDCHAR
STARTCHAR wacute
ENCODING 7811
SWIDTH 566 0
DWIDTH 14 0
BBX 12 17 1 0
BITMAP
0300
0600
0400
0000
0000
8C20
8E30
CA20
4B20
4920
68B0
28F0
3870
1870
1830
1810
0800
ENDCHAR
STARTCHAR Wdieresis
ENCODING 7812
SWIDTH 878 0
DWIDTH 21 0
BBX 20 20 0 0
BITMAP
00D800
004800
000010
000010
000010
403030
C03020
603820
207820
204860
304840
304C40
108440
1884C0
188280
190280
090180
0D0180
0F0100
060000
ENDCHAR
STARTCHAR wdieresis
ENCODING 7813
SWIDTH 566 0
DWIDTH 14 0
BBX 12 18 1 0
BITMAP
1B00
0900
0000
0000
0000
0000
8C20
8E30
CA20
4B20
4920
68B0
28F0
3870
1870
1830
1810
0800
ENDCHAR
STARTCHAR Ygrave
ENCODING 7922
SWIDTH 483 0
DWIDTH 12 0
BBX 11 24 0 0
BITMAP
0800
0400
0600
0200
0000
0020
0020
0020
0040
C040
4040
60C0
3080
1880
0D80
0700
0300
0300
0200
0200
0600
0400
0400
0C00
ENDCHAR
STARTCHAR ygrave
ENCODING 7923
SWIDTH 363 0
DWIDTH 9 0
BBX 7 27 1 -9
BITMAP
20
20
30
10
00
02
02
82
82
C2
62
22
32
1A
0A
0E
06
06
02
06
06
06
06
04
04
04
04
ENDCHAR
STARTCHAR endash
ENCODING 8211
SWIDTH 399 0
DWIDTH 10 0
BBX 9 4 0 4
BITMAP
0180
0F80
7800
C000
ENDCHAR
STARTCHAR emdash
ENCODING 8212
SWIDTH 549 0
DWIDTH 13 0
BBX 12 3 0 4
BITMAP
03F0
7F00
C000
ENDCHAR
STARTCHAR quoteleft
ENCODING 8216
SWIDTH 155 0
DWIDTH 4 0
BBX 1 7 1 8
BITMAP
80
80
80
80
80
80
80
ENDCHAR
STARTCHAR quoteright
ENCODING 8217
SWIDTH 155 0
DWIDTH 4 0
BBX 1 7 1 8
BITMAP
80
80
80
80
80
80
80
ENDCHAR
STARTCHAR quotesinglbase
ENCODING 8218
SWIDTH 155 0
DWIDTH 4 0
BBX 2 7 1 0
BITMAP
80
C0
C0
C0
C0
40
40
ENDCHAR
STARTCHAR quotedblleft
ENCODING 8220
SWIDTH 212 0
DWIDTH 5 0
BBX 3 7 1 12
BITMAP
A0
A0
A0
A0
A0
A0
80
ENDCHAR
STARTCHAR quotedblright
ENCODING 8221
SWIDTH 212 0
DWIDTH 5 0
BBX 3 7 1 12
BITMAP
A0
A0
A0
A0
A0
A0
80
ENDCHAR
STARTCHAR quotedblbase
ENCODING 8222
SWIDTH 212 0
DWIDTH 5 0
BBX 3 7 1 0
BITMAP
A0
A0
A0
A0
A0
A0
80
ENDCHAR
STARTCHAR dagger
ENCODING 8224
SWIDTH 268 0
DWIDTH 6 0
BBX 8 19 -1 -1
BITMAP
10
10
10
30
30
3F
3C
F0
B0
30
30
30
10
10
10
10
10
10
10
ENDCHAR
STARTCHAR daggerdbl
ENCODING 8225
SWIDTH 326 0
DWIDTH 8 0
BBX 8 19 0 -1
BITMAP
10
10
10
10
10
1F
3C
F0
73
1F
70
90
10
10
10
10
10
10
10
ENDCHAR
STARTCHAR bullet
ENCODING 8226
SWIDTH 189 0
DWIDTH 5 0
BBX 3 4 1 5
BITMAP
60
E0
E0
40
ENDCHAR
STARTCHAR ellipsis
ENCODING 8230
SWIDTH 387 0
DWIDTH 9 0
BBX 8 2 1 0
BITMAP
92
9B
ENDCHAR
STARTCHAR guilsinglleft
ENCODING 8249
SWIDTH 409 0
DWIDTH 10 0
BBX 9 12 1 3
BITMAP
0180
0300
0600
0C00
3800
6000
C000
6000
3000
1C00
0700
0300
ENDCHAR
STARTCHAR guilsinglright
ENCODING 8250
SWIDTH 450 0
DWIDTH 11 0
BBX 8 13 1 3
BITMAP
80
E0
38
0E
03
01
01
02
0C
18
30
60
C0
ENDCHAR
STARTCHAR fraction
ENCODING 8260
SWIDTH 306 0
DWIDTH 7 0
BBX 7 19 0 -2
BITMAP
06
04
04
04
08
08
08
18
10
10
30
20
20
20
40
40
40
80
80
ENDCHAR
STARTCHAR Euro
ENCODING 8364
SWIDTH 589 0
DWIDTH 14 0
BBX 14 17 0 0
BITMAP
01E0
0220
0600
0400
0400
0C00
0800
3F80
7800
1800
13C0
3C00
F000
100C
1818
0870
07C0
ENDCHAR
STARTCHAR trademark
ENCODING 8482
SWIDTH 1278 0
DWIDTH 31 0
BBX 30 18 0 0
BITMAP
00018010
018FC030
0FFDE030
F880A030
0080B050
00809050
00809850
00808890
00808C88
00808488
00C08708
00C08308
00C08208
00408008
0040C008
0040C00C
0040C00C
0040C00C
ENDCHAR
STARTCHAR minus
ENCODING 8722
SWIDTH 358 0
DWIDTH 9 0
BBX 7 2 1 6
BITMAP
1E
F8
ENDCHAR
STARTCHAR commaaccent
ENCODING 63171
SWIDTH 450 0
DWIDTH 11 0
BBX 2 6 4 -8
BITMAP
40
C0
C0
C0
80
80
ENDCHAR
STARTCHAR fi
ENCODING 64257
SWIDTH 409 0
DWIDTH 10 0
BBX 9 21 0 0
BITMAP
1C00
1E00
1200
3100
3100
3000
3000
3100
3180
3780
3F80
7180
F180
3180
3180
1180
1180
1180
1180
1180
1180
ENDCHAR
STARTCHAR fl
ENCODING 64258
SWIDTH 416 0
DWIDTH 10 0
BBX 9 21 0 0
BITMAP
1C00
1F00
1300
3100
3100
3180
3080
3080
3080
3780
3E80
7080
F080
3080
3080
1080
1080
1080
1080
1080
1080
ENDCHAR
STARTCHAR .notdef
ENCODING -1
SWIDTH 450 0
DWIDTH 11 0
BBX 1 1 0 0
BITMAP
00
ENDCHAR
STARTCHAR .null
ENCODING -1
SWIDTH 0 0
DWIDTH 0 0
BBX 1 1 0 0
BITMAP
00
ENDCHAR
STARTCHAR nonmarkingreturn
ENCODING -1
SWIDTH 450 0
DWIDTH 11 0
BBX 1 1 0 0
BITMAP
00
ENDCHAR
ENDFONT
